<svg width="18" height="20" viewBox="0 0 18 20" fill="none" xmlns="http://www.w3.org/2000/svg">
<path d="M16.834 8.34084H14.1848C12.0123 8.34084 10.2432 6.57167 10.2432 4.39917V1.75C10.2432 1.24584 9.83065 0.833336 9.32648 0.833336H5.43982C2.61648 0.833336 0.333984 2.66667 0.333984 5.93917V14.0608C0.333984 17.3333 2.61648 19.1667 5.43982 19.1667H12.6448C15.4682 19.1667 17.7507 17.3333 17.7507 14.0608V9.2575C17.7507 8.75334 17.3382 8.34084 16.834 8.34084ZM9.29898 13.465L7.46565 15.2983C7.40148 15.3625 7.31898 15.4175 7.23648 15.445C7.15398 15.4817 7.07148 15.5 6.97982 15.5C6.88815 15.5 6.80565 15.4817 6.72315 15.445C6.64982 15.4175 6.57648 15.3625 6.52148 15.3075C6.51232 15.2983 6.50315 15.2983 6.50315 15.2892L4.66982 13.4558C4.40398 13.19 4.40398 12.75 4.66982 12.4842C4.93565 12.2183 5.37565 12.2183 5.64148 12.4842L6.29232 13.1533V9.3125C6.29232 8.93667 6.60398 8.625 6.97982 8.625C7.35565 8.625 7.66732 8.93667 7.66732 9.3125V13.1533L8.32732 12.4933C8.59315 12.2275 9.03315 12.2275 9.29898 12.4933C9.56482 12.7592 9.56482 13.1992 9.29898 13.465Z" fill="#001723" fill-opacity="0.9"/>
<path d="M14.0198 7.07583C14.8907 7.085 16.1007 7.085 17.1365 7.085C17.659 7.085 17.934 6.47083 17.5673 6.10416C16.2473 4.775 13.8823 2.3825 12.5257 1.02583C12.1498 0.649999 11.499 0.906665 11.499 1.42917V4.62833C11.499 5.96666 12.6357 7.07583 14.0198 7.07583Z" fill="#001723" fill-opacity="0.9"/>
</svg>
