<svg width="17" height="20" viewBox="0 0 17 20" fill="none" xmlns="http://www.w3.org/2000/svg">
<path d="M16.3756 6.74583C15.4131 2.51083 11.719 0.604168 8.47396 0.604168C8.47396 0.604168 8.47396 0.604168 8.4648 0.604168C5.22896 0.604168 1.52563 2.50167 0.563131 6.73667C-0.509369 11.4667 2.3873 15.4725 5.00896 17.9933C5.98063 18.9283 7.2273 19.3958 8.47396 19.3958C9.72063 19.3958 10.9673 18.9283 11.9298 17.9933C14.5515 15.4725 17.4481 11.4758 16.3756 6.74583ZM8.47396 11.3383C6.87896 11.3383 5.58646 10.0458 5.58646 8.45083C5.58646 6.85583 6.87896 5.56333 8.47396 5.56333C10.069 5.56333 11.3615 6.85583 11.3615 8.45083C11.3615 10.0458 10.069 11.3383 8.47396 11.3383Z" fill="#001723" fill-opacity="0.9"/>
</svg>
