<svg width="21" height="20" viewBox="0 0 21 20" fill="none" xmlns="http://www.w3.org/2000/svg">
<path d="M1.02148 7.9375C0.645651 7.9375 0.333984 7.62583 0.333984 7.25V4.95833C0.333984 2.29999 2.49732 0.145828 5.14648 0.145828H7.43815C7.81398 0.145828 8.12565 0.457495 8.12565 0.833328C8.12565 1.20916 7.81398 1.52083 7.43815 1.52083H5.14648C3.24898 1.52083 1.70898 3.06083 1.70898 4.95833V7.25C1.70898 7.62583 1.39732 7.9375 1.02148 7.9375Z" fill="#001723" fill-opacity="0.9"/>
<path d="M19.3547 7.9375C18.9788 7.9375 18.6672 7.62583 18.6672 7.25V4.95833C18.6672 3.06083 17.1272 1.52083 15.2297 1.52083H12.938C12.5622 1.52083 12.2505 1.20916 12.2505 0.833328C12.2505 0.457495 12.5622 0.145828 12.938 0.145828H15.2297C17.8788 0.145828 20.0422 2.29999 20.0422 4.95833V7.25C20.0422 7.62583 19.7305 7.9375 19.3547 7.9375Z" fill="#001723" fill-opacity="0.9"/>
<path d="M15.23 19.8541H13.855C13.4791 19.8541 13.1675 19.5424 13.1675 19.1666C13.1675 18.7907 13.4791 18.4791 13.855 18.4791H15.23C17.1275 18.4791 18.6675 16.9391 18.6675 15.0416V13.6666C18.6675 13.2907 18.9791 12.9791 19.355 12.9791C19.7308 12.9791 20.0425 13.2907 20.0425 13.6666V15.0416C20.0425 17.6999 17.8791 19.8541 15.23 19.8541Z" fill="#001723" fill-opacity="0.9"/>
<path d="M7.43815 19.8542H5.14648C2.49732 19.8542 0.333984 17.7 0.333984 15.0417V12.75C0.333984 12.3742 0.645651 12.0625 1.02148 12.0625C1.39732 12.0625 1.70898 12.3742 1.70898 12.75V15.0417C1.70898 16.9392 3.24898 18.4792 5.14648 18.4792H7.43815C7.81398 18.4792 8.12565 18.7908 8.12565 19.1667C8.12565 19.5425 7.81398 19.8542 7.43815 19.8542Z" fill="#001723" fill-opacity="0.9"/>
<path d="M7.43799 3.81258H5.60465C4.55965 3.81258 4.00049 4.36258 4.00049 5.41674V7.25008C4.00049 8.30424 4.55965 8.85424 5.60465 8.85424H7.43799C8.48299 8.85424 9.04215 8.30424 9.04215 7.25008V5.41674C9.04215 4.36258 8.48299 3.81258 7.43799 3.81258Z" fill="#001723" fill-opacity="0.9"/>
<path d="M14.7715 3.8125H12.9382C11.8932 3.8125 11.334 4.3625 11.334 5.41667V7.25C11.334 8.30417 11.8932 8.85417 12.9382 8.85417H14.7715C15.8165 8.85417 16.3757 8.30417 16.3757 7.25V5.41667C16.3757 4.3625 15.8165 3.8125 14.7715 3.8125Z" fill="#001723" fill-opacity="0.9"/>
<path d="M7.43799 11.1458H5.60465C4.55965 11.1458 4.00049 11.6958 4.00049 12.75V14.5833C4.00049 15.6375 4.55965 16.1875 5.60465 16.1875H7.43799C8.48299 16.1875 9.04215 15.6375 9.04215 14.5833V12.75C9.04215 11.6958 8.48299 11.1458 7.43799 11.1458Z" fill="#001723" fill-opacity="0.9"/>
<path d="M14.7715 11.1458H12.9382C11.8932 11.1458 11.334 11.6958 11.334 12.75V14.5833C11.334 15.6375 11.8932 16.1875 12.9382 16.1875H14.7715C15.8165 16.1875 16.3757 15.6375 16.3757 14.5833V12.75C16.3757 11.6958 15.8165 11.1458 14.7715 11.1458Z" fill="#001723" fill-opacity="0.9"/>
</svg>
