<svg width="498" height="505" viewBox="0 0 498 505" fill="none" xmlns="http://www.w3.org/2000/svg">
<path d="M384.312 373.581C361.756 365.772 342.956 348.595 327.911 322.052C312.865 295.508 307.786 270.554 312.673 247.19C317.405 223.913 331.488 205.633 354.922 192.351C378.202 179.156 401.12 176.463 423.676 184.272C446.232 192.082 465.033 209.258 480.078 235.802C495.123 262.346 500.203 287.3 495.316 310.664C490.429 334.028 476.346 352.308 453.066 365.503C429.786 378.698 406.868 381.391 384.312 373.581ZM402.776 235.268C393.911 229.69 385.701 229.042 378.146 233.324C370.592 237.606 366.931 244.983 367.162 255.454C367.481 266.08 371.709 278.569 379.843 292.922C387.978 307.274 396.522 317.316 405.475 323.048C414.428 328.781 422.682 329.506 430.236 325.224C437.79 320.942 441.408 313.488 441.089 302.862C440.77 292.236 436.543 279.747 428.408 265.395C420.273 251.043 411.729 241.001 402.776 235.268ZM247.108 32.3264L303.073 0.605376L274.205 251.56L248.892 472.666L193.159 504.256L221.082 260.26L247.108 32.3264ZM17.2031 270.912C2.07044 244.213 -3.05263 219.182 1.83398 195.818C6.72059 172.454 20.8039 154.174 44.0838 140.979C67.3638 127.784 90.2817 125.091 112.838 132.9C135.481 140.864 154.326 158.118 169.371 184.662C184.416 211.206 189.495 236.16 184.609 259.524C179.722 282.888 165.639 301.167 142.359 314.363C119.079 327.558 96.1609 330.251 73.6049 322.441C51.0489 314.632 32.2483 297.455 17.2031 270.912ZM92.0686 184.128C83.2032 178.55 74.9933 177.902 67.4389 182.184C59.8845 186.466 56.2231 193.843 56.4549 204.314C56.7741 214.94 61.0011 227.429 69.136 241.781C77.271 256.134 85.8148 266.176 94.7677 271.908C103.721 277.641 111.974 278.366 119.529 274.084C127.083 269.802 130.701 262.348 130.381 251.722C130.062 241.096 125.835 228.607 117.7 214.255C109.565 199.903 101.021 189.86 92.0686 184.128Z" fill="url(#paint0_linear_1_309)" fill-opacity="0.1"/>
<defs>
<linearGradient id="paint0_linear_1_309" x1="346.456" y1="425.93" x2="150.694" y2="80.552" gradientUnits="userSpaceOnUse">
<stop offset="0.291667" stop-color="white"/>
<stop offset="0.833333" stop-color="white" stop-opacity="0.1"/>
<stop offset="1" stop-color="white" stop-opacity="0"/>
</linearGradient>
</defs>
</svg>
