<svg width="121" height="40" viewBox="0 0 121 40" fill="none" xmlns="http://www.w3.org/2000/svg">
<g filter="url(#filter0_bi_1_470)">
<rect x="0.579285" width="120.351" height="40.0004" rx="4.15007" fill="url(#paint0_radial_1_470)"/>
<rect x="0.976186" y="0.396901" width="119.557" height="39.2066" rx="3.75317" stroke="black" stroke-opacity="0.1" stroke-width="0.793802"/>
<path d="M27.6024 19.5484C27.613 18.7377 27.8313 17.9429 28.2371 17.2377C28.6429 16.5326 29.2229 15.9402 29.9232 15.5156C29.4783 14.889 28.8914 14.3733 28.2091 14.0095C27.5268 13.6457 26.7679 13.4438 25.9926 13.4199C24.3388 13.2487 22.7356 14.3959 21.8928 14.3959C21.0338 14.3959 19.7363 13.4369 18.339 13.4652C17.4353 13.494 16.5545 13.7532 15.7825 14.2175C15.0105 14.6819 14.3737 15.3355 13.934 16.1148C12.0294 19.367 13.45 24.1468 15.2745 26.7757C16.1874 28.0629 17.2542 29.5009 18.6502 29.4499C20.0162 29.394 20.5264 28.5908 22.1753 28.5908C23.8089 28.5908 24.2875 29.4499 25.7118 29.4175C27.1776 29.394 28.1011 28.1245 28.982 26.825C29.6378 25.9077 30.1425 24.894 30.4774 23.8213C29.6258 23.466 28.899 22.8714 28.3878 22.1116C27.8765 21.3518 27.6034 20.4603 27.6024 19.5484Z" fill="black"/>
<path d="M24.9125 11.6906C25.7117 10.7443 26.1055 9.5281 26.0101 8.30017C24.7891 8.42665 23.6612 9.00219 22.8512 9.91212C22.4552 10.3566 22.1518 10.8738 21.9586 11.434C21.7653 11.9942 21.6859 12.5865 21.7248 13.177C22.3356 13.1832 22.9398 13.0526 23.4919 12.7952C24.0441 12.5377 24.5298 12.16 24.9125 11.6906Z" fill="black"/>
<path d="M44.8521 25.7677H40.3693L39.2928 28.9027H37.3941L41.6401 17.3041H43.6128L47.8588 28.9027H45.9277L44.8521 25.7677ZM40.8336 24.3211H44.3869L42.6353 19.2332H42.5862L40.8336 24.3211Z" fill="black"/>
<path d="M57.0287 24.6751C57.0287 27.303 55.6025 28.9913 53.4504 28.9913C52.9052 29.0194 52.3631 28.8956 51.8859 28.6339C51.4088 28.3723 51.0161 27.9834 50.7526 27.5118H50.7119V31.7003H48.9519V20.4465H50.6555V21.853H50.6879C50.9634 21.3837 51.3628 20.9968 51.8435 20.7336C52.3243 20.4703 52.8684 20.3405 53.418 20.358C55.5942 20.358 57.0287 22.0546 57.0287 24.6751ZM55.2196 24.6751C55.2196 22.9631 54.3225 21.8375 52.9538 21.8375C51.609 21.8375 50.7045 22.9868 50.7045 24.6751C50.7045 26.379 51.609 27.52 52.9538 27.52C54.3225 27.52 55.2196 26.4027 55.2196 24.6751H55.2196Z" fill="black"/>
<path d="M66.4664 24.6751C66.4664 27.303 65.0398 28.9913 62.8877 28.9913C62.3425 29.0194 61.8003 28.8956 61.3232 28.6339C60.8461 28.3723 60.4533 27.9834 60.1899 27.5118H60.1492V31.7003H58.3892V20.4465H60.0927V21.853H60.1251C60.4007 21.3837 60.8 20.9968 61.2808 20.7336C61.7615 20.4703 62.3057 20.3405 62.8553 20.358C65.0315 20.358 66.4664 22.0546 66.4664 24.6751ZM64.6569 24.6751C64.6569 22.9631 63.7598 21.8375 62.391 21.8375C61.0463 21.8375 60.1418 22.9868 60.1418 24.6751C60.1418 26.379 61.0463 27.52 62.391 27.52C63.7598 27.52 64.6569 26.4027 64.6569 24.6751Z" fill="black"/>
<path d="M72.7025 25.6714C72.8329 26.8216 73.9658 27.5768 75.514 27.5768C76.9975 27.5768 78.0648 26.8216 78.0648 25.7845C78.0648 24.8842 77.4211 24.3452 75.8969 23.9758L74.3728 23.6136C72.2132 23.0992 71.2107 22.1032 71.2107 20.4869C71.2107 18.4857 72.979 17.1111 75.4891 17.1111C77.9751 17.1111 79.6786 18.4857 79.736 20.4869H77.9593C77.853 19.3294 76.8828 18.6307 75.465 18.6307C74.0472 18.6307 73.077 19.3376 73.077 20.3665C73.077 21.1865 73.6967 21.669 75.2125 22.0384L76.5082 22.3521C78.9212 22.9149 79.9228 23.8709 79.9228 25.5674C79.9228 27.7373 78.1711 29.0964 75.3836 29.0964C72.7755 29.0964 71.0146 27.7693 70.9008 25.6714L72.7025 25.6714Z" fill="black"/>
<path d="M83.7233 18.4459V20.4471H85.3538V21.8217H83.7233V26.4836C83.7233 27.2078 84.0497 27.5453 84.7665 27.5453C84.96 27.542 85.1533 27.5286 85.3454 27.5051V28.8715C85.0232 28.9309 84.6956 28.9578 84.3679 28.9518C82.6319 28.9518 81.9549 28.3087 81.9549 26.6687V21.8217H80.7083V20.4471H81.9549V18.4459H83.7233Z" fill="black"/>
<path d="M86.2971 24.6762C86.2971 22.0156 87.8859 20.3436 90.3636 20.3436C92.8496 20.3436 94.4311 22.0155 94.4311 24.6762C94.4311 27.3442 92.8579 29.0088 90.3636 29.0088C87.8702 29.0088 86.2971 27.3442 86.2971 24.6762ZM92.6378 24.6762C92.6378 22.8511 91.7897 21.7738 90.3636 21.7738C88.9375 21.7738 88.0894 22.8593 88.0894 24.6762C88.0894 26.5087 88.9375 27.5777 90.3636 27.5777C91.7897 27.5777 92.6378 26.5087 92.6378 24.6762H92.6378Z" fill="black"/>
<path d="M95.8823 20.4468H97.5609V21.8861H97.6017C97.7152 21.4366 97.9823 21.0393 98.3578 20.7611C98.7334 20.4828 99.1947 20.3406 99.6641 20.3583C99.8669 20.3576 100.069 20.3793 100.267 20.423V22.0466C100.011 21.9695 99.7439 21.934 99.4763 21.9417C99.2206 21.9315 98.9657 21.976 98.7291 22.0721C98.4925 22.1682 98.2798 22.3136 98.1055 22.4985C97.9313 22.6833 97.7997 22.9031 97.7197 23.1429C97.6398 23.3826 97.6134 23.6366 97.6423 23.8873V28.9031H95.8823L95.8823 20.4468Z" fill="black"/>
<path d="M108.382 26.4202C108.145 27.9553 106.629 29.0088 104.69 29.0088C102.195 29.0088 100.647 27.3606 100.647 24.7164C100.647 22.0639 102.204 20.3436 104.616 20.3436C106.988 20.3436 108.48 21.9508 108.48 24.5148V25.1095H102.424V25.2144C102.396 25.5256 102.435 25.8391 102.54 26.1341C102.644 26.4291 102.811 26.6989 103.029 26.9254C103.247 27.1519 103.512 27.3301 103.805 27.4481C104.098 27.5661 104.414 27.6211 104.73 27.6096C105.146 27.6481 105.564 27.5531 105.92 27.3388C106.277 27.1245 106.554 26.8023 106.71 26.4202L108.382 26.4202ZM102.432 23.8964H106.719C106.735 23.6165 106.692 23.3365 106.592 23.0739C106.493 22.8112 106.34 22.5716 106.143 22.3701C105.945 22.1685 105.708 22.0094 105.445 21.9027C105.182 21.7961 104.9 21.7441 104.616 21.7501C104.329 21.7484 104.045 21.8028 103.78 21.9099C103.514 22.0171 103.273 22.175 103.07 22.3745C102.867 22.5741 102.706 22.8113 102.597 23.0725C102.487 23.3337 102.431 23.6137 102.432 23.8964V23.8964Z" fill="black"/>
<path d="M40.6137 8.57468C40.9826 8.54857 41.3529 8.60355 41.6977 8.73565C42.0426 8.86775 42.3534 9.07368 42.6077 9.33859C42.8621 9.6035 43.0537 9.92079 43.1686 10.2676C43.2836 10.6143 43.3191 10.982 43.2726 11.3439C43.2726 13.1244 42.2969 14.1478 40.6137 14.1478H38.5725V8.57468H40.6137ZM39.4502 13.3597H40.5156C40.7793 13.3752 41.0431 13.3326 41.288 13.2349C41.5328 13.1371 41.7525 12.9868 41.931 12.7948C42.1095 12.6028 42.2424 12.374 42.3199 12.1249C42.3974 11.8759 42.4177 11.613 42.3792 11.3553C42.4149 11.0986 42.3926 10.8372 42.3139 10.59C42.2352 10.3428 42.102 10.1159 41.9239 9.9254C41.7458 9.73492 41.5272 9.58566 41.2837 9.4883C41.0402 9.39094 40.7779 9.3479 40.5156 9.36226H39.4502V13.3597Z" fill="black"/>
<path d="M44.2642 12.0437C44.2373 11.7673 44.2694 11.4884 44.3583 11.225C44.4471 10.9615 44.5909 10.7193 44.7802 10.5138C44.9696 10.3083 45.2004 10.1442 45.4578 10.0318C45.7153 9.91948 45.9937 9.86145 46.2752 9.86145C46.5568 9.86145 46.8352 9.91948 47.0926 10.0318C47.3501 10.1442 47.5809 10.3083 47.7703 10.5138C47.9596 10.7193 48.1033 10.9615 48.1922 11.225C48.2811 11.4884 48.3131 11.7673 48.2863 12.0437C48.3136 12.3203 48.282 12.5996 48.1933 12.8635C48.1047 13.1274 47.9611 13.37 47.7717 13.5759C47.5823 13.7818 47.3513 13.9463 47.0936 14.0589C46.8358 14.1715 46.5571 14.2296 46.2752 14.2296C45.9934 14.2296 45.7146 14.1715 45.4569 14.0589C45.1992 13.9463 44.9682 13.7818 44.7788 13.5759C44.5894 13.37 44.4458 13.1274 44.3571 12.8635C44.2685 12.5996 44.2368 12.3203 44.2642 12.0437ZM47.4207 12.0437C47.4207 11.132 47.0054 10.5989 46.2766 10.5989C45.5451 10.5989 45.1335 11.132 45.1335 12.0437C45.1335 12.9627 45.5451 13.4917 46.2766 13.4917C47.0054 13.4917 47.4207 12.959 47.4207 12.0437H47.4207Z" fill="black"/>
<path d="M53.6327 14.1478H52.7597L51.8783 11.0502H51.8117L50.934 14.1478H50.0693L48.8938 9.94202H49.7474L50.5114 13.1513H50.5743L51.451 9.94202H52.2584L53.1352 13.1513H53.2018L53.962 9.94202H54.8036L53.6327 14.1478Z" fill="black"/>
<path d="M55.7923 9.94165H56.6025V10.6098H56.6654C56.7721 10.3698 56.952 10.1686 57.1801 10.0343C57.4082 9.90001 57.6732 9.83923 57.938 9.86046C58.1455 9.84508 58.3538 9.87593 58.5476 9.95074C58.7413 10.0256 58.9155 10.1424 59.0573 10.2926C59.1991 10.4429 59.3047 10.6226 59.3665 10.8186C59.4282 11.0146 59.4445 11.2217 59.414 11.4248V14.1474H58.5724V11.6332C58.5724 10.9573 58.2746 10.6212 57.6522 10.6212C57.5113 10.6147 57.3707 10.6384 57.2399 10.6905C57.1092 10.7427 56.9914 10.8221 56.8947 10.9233C56.798 11.0245 56.7246 11.1452 56.6796 11.277C56.6346 11.4088 56.619 11.5487 56.6339 11.687V14.1475H55.7923L55.7923 9.94165Z" fill="black"/>
<path d="M60.7551 8.30017H61.5967V14.1478H60.7551V8.30017Z" fill="black"/>
<path d="M62.7666 12.0425C62.7398 11.7661 62.7719 11.4872 62.8608 11.2238C62.9496 10.9603 63.0934 10.7181 63.2828 10.5126C63.4721 10.3071 63.703 10.1429 63.9604 10.0306C64.2179 9.91826 64.4963 9.86023 64.7779 9.86023C65.0594 9.86023 65.3379 9.91826 65.5953 10.0306C65.8528 10.1429 66.0836 10.3071 66.273 10.5126C66.4624 10.7181 66.6061 10.9603 66.695 11.2238C66.7839 11.4872 66.816 11.7661 66.7892 12.0425C66.8165 12.3192 66.7848 12.5985 66.6961 12.8624C66.6075 13.1262 66.4638 13.3689 66.2744 13.5748C66.085 13.7806 65.854 13.9451 65.5962 14.0577C65.3385 14.1703 65.0598 14.2285 64.7779 14.2285C64.496 14.2285 64.2173 14.1703 63.9595 14.0577C63.7018 13.9451 63.4708 13.7806 63.2814 13.5748C63.092 13.3689 62.9483 13.1262 62.8597 12.8624C62.771 12.5985 62.7393 12.3192 62.7666 12.0425ZM65.9231 12.0425C65.9231 11.1309 65.5078 10.5977 64.779 10.5977C64.0475 10.5977 63.636 11.1309 63.636 12.0425C63.636 12.9615 64.0475 13.4905 64.779 13.4905C65.5078 13.4905 65.9231 12.9578 65.9231 12.0425H65.9231Z" fill="black"/>
<path d="M67.6753 12.959C67.6753 12.202 68.2469 11.7655 69.2614 11.7035L70.4166 11.6378V11.2748C70.4166 10.8306 70.1187 10.5797 69.5435 10.5797C69.0737 10.5797 68.7481 10.7499 68.6547 11.0472H67.8399C67.9259 10.3248 68.6149 9.86145 69.5823 9.86145C70.6515 9.86145 71.2545 10.3864 71.2545 11.2748V14.1484H70.4443V13.5574H70.3777C70.2425 13.7694 70.0528 13.9422 69.8277 14.0583C69.6027 14.1743 69.3504 14.2293 69.0968 14.2177C68.9178 14.2361 68.7368 14.2173 68.5656 14.1624C68.3944 14.1076 68.2368 14.018 68.1029 13.8994C67.9689 13.7808 67.8617 13.6359 67.7881 13.4739C67.7144 13.3119 67.676 13.1365 67.6753 12.959ZM70.4166 12.5996V12.248L69.3752 12.3137C68.7879 12.3525 68.5215 12.5495 68.5215 12.9203C68.5215 13.2988 68.8545 13.5191 69.3123 13.5191C69.4465 13.5325 69.582 13.5191 69.7108 13.4798C69.8396 13.4405 69.959 13.376 70.0621 13.2902C70.1651 13.2044 70.2496 13.0991 70.3105 12.9805C70.3714 12.8618 70.4074 12.7323 70.4166 12.5996Z" fill="black"/>
<path d="M72.3606 12.0431C72.3606 10.7141 73.0533 9.87224 74.1308 9.87224C74.3973 9.86013 74.6618 9.92308 74.8934 10.0537C75.1249 10.1844 75.314 10.3774 75.4385 10.6101H75.5014V8.30017H76.343V14.1478H75.5365V13.4833H75.47C75.3358 13.7145 75.1402 13.9051 74.9041 14.0344C74.6681 14.1638 74.4006 14.2269 74.1308 14.2171C73.0459 14.2172 72.3606 13.3753 72.3606 12.0431ZM73.23 12.0431C73.23 12.9352 73.6563 13.472 74.3694 13.472C75.0787 13.472 75.5171 12.9274 75.5171 12.0468C75.5171 11.1702 75.0741 10.6179 74.3694 10.6179C73.6609 10.6179 73.23 11.1583 73.23 12.0431H73.23Z" fill="black"/>
<path d="M79.8252 12.0437C79.7984 11.7673 79.8304 11.4884 79.9193 11.225C80.0082 10.9615 80.1519 10.7193 80.3413 10.5138C80.5306 10.3083 80.7614 10.1442 81.0189 10.0318C81.2763 9.91948 81.5548 9.86145 81.8363 9.86145C82.1178 9.86145 82.3962 9.91948 82.6537 10.0318C82.9111 10.1442 83.142 10.3083 83.3313 10.5138C83.5207 10.7193 83.6644 10.9615 83.7533 11.225C83.8421 11.4884 83.8742 11.7673 83.8474 12.0437C83.8747 12.3203 83.843 12.5996 83.7544 12.8635C83.6657 13.1274 83.5221 13.37 83.3327 13.5759C83.1433 13.7818 82.9123 13.9463 82.6546 14.0589C82.3969 14.1715 82.1182 14.2296 81.8363 14.2296C81.5544 14.2296 81.2757 14.1715 81.018 14.0589C80.7602 13.9463 80.5293 13.7818 80.3399 13.5759C80.1505 13.37 80.0068 13.1274 79.9182 12.8635C79.8295 12.5996 79.7979 12.3203 79.8252 12.0437ZM82.9817 12.0437C82.9817 11.132 82.5664 10.5989 81.8377 10.5989C81.1061 10.5989 80.6946 11.132 80.6946 12.0437C80.6946 12.9627 81.1061 13.4917 81.8377 13.4917C82.5665 13.4917 82.9817 12.959 82.9817 12.0437Z" fill="black"/>
<path d="M84.9766 9.94165H85.7867V10.6098H85.8496C85.9563 10.3698 86.1363 10.1686 86.3644 10.0343C86.5925 9.90001 86.8574 9.83923 87.1222 9.86046C87.3297 9.84508 87.5381 9.87593 87.7318 9.95074C87.9256 10.0256 88.0998 10.1424 88.2416 10.2926C88.3833 10.4429 88.489 10.6226 88.5507 10.8186C88.6125 11.0146 88.6287 11.2217 88.5983 11.4248V14.1474H87.7567V11.6332C87.7567 10.9573 87.4589 10.6212 86.8364 10.6212C86.6956 10.6147 86.5549 10.6384 86.4242 10.6905C86.2934 10.7427 86.1757 10.8221 86.079 10.9233C85.9822 11.0245 85.9089 11.1452 85.8638 11.277C85.8188 11.4088 85.8033 11.5487 85.8182 11.687V14.1475H84.9766V9.94165Z" fill="black"/>
<path d="M93.3538 8.89514V9.96142H94.2778V10.6606H93.3538V12.8232C93.3538 13.2638 93.5379 13.4567 93.9568 13.4567C94.0641 13.4564 94.1712 13.45 94.2778 13.4375V14.1289C94.1266 14.1556 93.9735 14.1698 93.8199 14.1713C92.884 14.1713 92.5113 13.8466 92.5113 13.0357V10.6605H91.8343V9.96138H92.5113V8.89514H93.3538Z" fill="black"/>
<path d="M95.4273 8.30017H96.2615V10.6179H96.3281C96.44 10.3757 96.6249 10.1734 96.8575 10.0386C97.0902 9.90373 97.3594 9.84295 97.6284 9.86447C97.8348 9.8534 98.0412 9.88738 98.2327 9.96401C98.4243 10.0406 98.5963 10.158 98.7366 10.3078C98.8769 10.4575 98.9819 10.636 99.0442 10.8304C99.1065 11.0248 99.1246 11.2304 99.097 11.4324V14.1478H98.2546V11.6372C98.2546 10.9654 97.9373 10.6252 97.3427 10.6252C97.198 10.6135 97.0525 10.6331 96.9164 10.6826C96.7802 10.7322 96.6567 10.8105 96.5544 10.9121C96.4521 11.0136 96.3736 11.136 96.3243 11.2706C96.275 11.4052 96.2561 11.5489 96.269 11.6915V14.1478H95.4273L95.4273 8.30017Z" fill="black"/>
<path d="M104.004 13.0116C103.89 13.396 103.642 13.7285 103.304 13.9509C102.967 14.1733 102.56 14.2715 102.157 14.2284C101.876 14.2357 101.596 14.1826 101.338 14.0728C101.08 13.963 100.849 13.7992 100.662 13.5927C100.475 13.3861 100.335 13.1418 100.253 12.8767C100.171 12.6116 100.148 12.3321 100.187 12.0575C100.149 11.7821 100.172 11.5019 100.254 11.236C100.336 10.9701 100.475 10.7247 100.661 10.5164C100.848 10.308 101.077 10.1416 101.335 10.0284C101.592 9.91517 101.871 9.85781 102.153 9.86018C103.339 9.86018 104.055 10.6597 104.055 11.9804V12.27H101.044V12.3165C101.031 12.4709 101.05 12.6262 101.102 12.7727C101.153 12.9191 101.235 13.0533 101.342 13.1667C101.448 13.2802 101.578 13.3703 101.723 13.4314C101.867 13.4925 102.023 13.5231 102.18 13.5214C102.381 13.5453 102.585 13.5095 102.766 13.4187C102.946 13.3279 103.095 13.1862 103.194 13.0115L104.004 13.0116ZM101.044 11.6562H103.198C103.208 11.515 103.189 11.3732 103.141 11.2399C103.093 11.1066 103.017 10.9847 102.918 10.8821C102.819 10.7795 102.699 10.6984 102.567 10.6441C102.434 10.5898 102.292 10.5634 102.148 10.5666C102.003 10.5648 101.858 10.5918 101.723 10.6459C101.588 10.7 101.466 10.7802 101.363 10.8818C101.26 10.9833 101.179 11.1041 101.124 11.2371C101.069 11.3701 101.042 11.5126 101.044 11.6562H101.044Z" fill="black"/>
</g>
<defs>
<filter id="filter0_bi_1_470" x="-76.8888" y="-77.468" width="275.287" height="194.936" filterUnits="userSpaceOnUse" color-interpolation-filters="sRGB">
<feFlood flood-opacity="0" result="BackgroundImageFix"/>
<feGaussianBlur in="BackgroundImageFix" stdDeviation="38.734"/>
<feComposite in2="SourceAlpha" operator="in" result="effect1_backgroundBlur_1_470"/>
<feBlend mode="normal" in="SourceGraphic" in2="effect1_backgroundBlur_1_470" result="shape"/>
<feColorMatrix in="SourceAlpha" type="matrix" values="0 0 0 0 0 0 0 0 0 0 0 0 0 0 0 0 0 0 127 0" result="hardAlpha"/>
<feOffset dy="2.76672"/>
<feGaussianBlur stdDeviation="4.49591"/>
<feComposite in2="hardAlpha" operator="arithmetic" k2="-1" k3="1"/>
<feColorMatrix type="matrix" values="0 0 0 0 1 0 0 0 0 1 0 0 0 0 1 0 0 0 0.01 0"/>
<feBlend mode="normal" in2="shape" result="effect2_innerShadow_1_470"/>
</filter>
<radialGradient id="paint0_radial_1_470" cx="0" cy="0" r="1" gradientUnits="userSpaceOnUse" gradientTransform="translate(60.7546 20.0002) rotate(90) scale(20.0002 60.1753)">
<stop offset="0.520833" stop-color="white"/>
<stop offset="1" stop-color="white" stop-opacity="0.96"/>
</radialGradient>
</defs>
</svg>
