<svg width="126" height="41" viewBox="0 0 126 41" fill="none" xmlns="http://www.w3.org/2000/svg">
<g filter="url(#filter0_bi_1_411)">
<rect width="125.672" height="40.7946" rx="4.15007" fill="url(#paint0_radial_1_411)"/>
<rect x="0.396901" y="0.396901" width="124.878" height="40.0008" rx="3.75317" stroke="black" stroke-opacity="0.1" stroke-width="0.793802"/>
<path d="M45.0235 11.972C45.0235 12.6934 44.8077 13.2679 44.3755 13.6965C43.8845 14.2061 43.2446 14.4611 42.458 14.4611C41.7046 14.4611 41.0642 14.2027 40.5374 13.6854C40.0098 13.1684 39.7465 12.5273 39.7465 11.7624C39.7465 10.9971 40.0098 10.3564 40.5374 9.83902C41.0642 9.32202 41.7046 9.06334 42.458 9.06334C42.8318 9.06334 43.1896 9.13568 43.5294 9.28C43.8692 9.42466 44.1417 9.61669 44.3456 9.85719L43.8868 10.3116C43.5413 9.90292 43.0656 9.69875 42.458 9.69875C41.9085 9.69875 41.4335 9.88983 41.0326 10.2722C40.6316 10.6551 40.4311 11.1515 40.4311 11.7624C40.4311 12.3732 40.6316 12.8697 41.0326 13.2525C41.4335 13.6349 41.9085 13.826 42.458 13.826C43.0408 13.826 43.5267 13.6339 43.9157 13.2491C44.1682 12.9985 44.3143 12.6501 44.3534 12.2027H42.458V11.5821H44.9872C45.0116 11.717 45.0235 11.8465 45.0235 11.972Z" fill="black"/>
<path d="M45.0233 11.9719H44.9363C44.9356 12.6769 44.7276 13.2245 44.3137 13.6356L44.3128 13.6362L44.3124 13.6369C43.837 14.129 43.226 14.3739 42.4577 14.3749C41.7245 14.3739 41.1108 14.1263 40.5984 13.6245C40.087 13.1216 39.8342 12.5077 39.8332 11.7623C39.8342 11.0166 40.087 10.4031 40.5984 9.90054C41.1108 9.39835 41.7245 9.15044 42.4577 9.1494C42.8203 9.1494 43.1656 9.21941 43.4948 9.35899C43.8244 9.49961 44.0848 9.68389 44.2787 9.91268L44.3454 9.85714L44.2839 9.79626L43.8251 10.251L43.8866 10.3115L43.9536 10.2564C43.592 9.82752 43.0844 9.6113 42.4577 9.61259C41.888 9.6119 41.3867 9.8134 40.9722 10.2104C40.5536 10.6086 40.3432 11.1329 40.3439 11.7623C40.3432 12.3917 40.5536 12.916 40.9722 13.3143C41.3867 13.7113 41.888 13.9127 42.4577 13.9121C43.0599 13.9131 43.573 13.7109 43.977 13.31C44.2468 13.0422 44.3997 12.6712 44.4398 12.21L44.4479 12.1165H42.5447V11.6681H44.9869V11.582L44.9012 11.5972C44.9251 11.7277 44.9363 11.8518 44.9363 11.9719H45.0233H45.1103C45.1103 11.841 45.098 11.7065 45.0725 11.5666L45.0596 11.4959H42.3707V12.2026V12.2887H44.3531V12.2026L44.2665 12.1952C44.2281 12.6285 44.0888 12.9548 43.854 13.1882C43.4802 13.5569 43.0215 13.7388 42.4577 13.7398C41.9287 13.7391 41.4798 13.5588 41.0928 13.1905C40.7095 12.8235 40.5189 12.355 40.5179 11.7623C40.5189 11.1696 40.7095 10.7011 41.0928 10.3341C41.4798 9.96581 41.9287 9.7855 42.4577 9.78481C43.0459 9.78619 43.4901 9.97856 43.8201 10.3671L43.8812 10.4391L44.4069 9.91802L44.4632 9.86222L44.4119 9.80195C44.1982 9.54973 43.9135 9.34952 43.5634 9.2009C43.2128 9.05184 42.8427 8.97718 42.4577 8.97718C41.6844 8.9765 41.017 9.24559 40.4757 9.77809C39.9324 10.3096 39.6585 10.9776 39.6592 11.7623C39.6585 12.5467 39.9324 13.2151 40.4761 13.7469C41.017 14.2791 41.6844 14.5478 42.4577 14.5471C43.2631 14.5478 43.9311 14.283 44.4381 13.7559L44.3752 13.6964L44.4367 13.7573C44.8873 13.3116 45.1109 12.7095 45.1103 11.9719H45.0233Z" fill="black"/>
<path d="M49.033 9.8137H46.6561V11.4519H48.7996V12.0727H46.6561V13.7109H49.033V14.3456H45.986V9.17898H49.033V9.8137Z" fill="black"/>
<path d="M49.0331 9.81402V9.72791H46.5693V11.5383H48.7128V11.9867L46.5693 11.9869V13.7973H48.9461V14.2598H46.0732V9.26541H48.9461V9.81402H49.0331V9.72791V9.81402H49.1201V9.1793V9.09319H45.8992V14.432H49.1201V13.7112V13.6251H46.7432V12.1591H48.8867V11.4522V11.3661H46.7432V9.90013H49.1201V9.81402H49.0331Z" fill="black"/>
<path d="M51.861 14.3456H51.1899V9.8137H49.7321V9.17898H53.3188V9.8137H51.861V14.3456Z" fill="black"/>
<path d="M51.8612 14.3459V14.2598H51.277V9.72791H49.8193V9.26541H53.2319V9.72791H51.7742V14.3459H51.8612V14.2598V14.3459H51.9482V9.90013H53.4059V9.1793V9.09319H49.6453V9.81402V9.90013H51.1031V14.432H51.8612H51.9482V14.3459H51.8612Z" fill="black"/>
<path d="M55.9144 14.3456V9.17898H56.5848V14.3456H55.9144Z" fill="black"/>
<path d="M55.9141 14.3459H56.0011V9.26541H56.4976V14.2598H55.9141V14.3459H56.0011H55.9141V14.432H56.5845H56.6715V9.09319H55.9141H55.8271V14.432H55.9141V14.3459Z" fill="black"/>
<path d="M59.5594 14.3456H58.8883V9.8137H57.4306V9.17898H61.0172V9.8137H59.5594V14.3456Z" fill="black"/>
<path d="M59.5592 14.3459V14.2598H58.9751V9.72791H57.5174V9.26541H60.93V9.72791H59.4722V14.3459H59.5592V14.2598V14.3459H59.6462V9.90013H61.1039V9.1793V9.09319H57.3434V9.81402V9.90013H58.8011V14.432H59.5592H59.6462V14.3459H59.5592Z" fill="black"/>
<path d="M64.4749 13.2454C64.8612 13.6326 65.3339 13.826 65.8929 13.826C66.4519 13.826 66.9248 13.6326 67.3105 13.2454C67.6972 12.8583 67.8909 12.3634 67.8909 11.7624C67.8909 11.1613 67.6972 10.6665 67.3105 10.2793C66.9248 9.89215 66.4519 9.69875 65.8929 9.69875C65.3339 9.69875 64.8612 9.89215 64.4749 10.2793C64.0892 10.6665 63.8956 11.1613 63.8956 11.7624C63.8956 12.3634 64.0892 12.8583 64.4749 13.2454ZM67.8066 13.678C67.2935 14.2003 66.6553 14.4611 65.8929 14.4611C65.1297 14.4611 64.4919 14.2003 63.9798 13.678C63.4664 13.1562 63.2109 12.5176 63.2109 11.7624C63.2109 11.0072 63.4664 10.3684 63.9798 9.84677C64.4919 9.32434 65.1297 9.06334 65.8929 9.06334C66.6513 9.06334 67.2877 9.32572 67.8032 9.85013C68.318 10.3745 68.5756 11.0119 68.5756 11.7624C68.5756 12.5176 68.3186 13.1562 67.8066 13.678Z" fill="black"/>
<path d="M64.4747 13.2454L64.4128 13.3059C64.8135 13.7086 65.3133 13.9131 65.8927 13.9121C66.4717 13.9131 66.9722 13.7086 67.3722 13.3059C67.7755 12.9029 67.9783 12.3815 67.9777 11.7623C67.9783 11.1431 67.7755 10.6217 67.3722 10.2187C66.9722 9.81607 66.4717 9.61156 65.8927 9.61259C65.3133 9.61156 64.8135 9.81607 64.4128 10.2187C64.0105 10.6217 63.8073 11.1431 63.8083 11.7623C63.8073 12.3815 64.0105 12.9029 64.4128 13.3059L64.4747 13.2454L64.5365 13.1849C64.1675 12.8131 63.983 12.3455 63.9823 11.7623C63.983 11.1791 64.1675 10.7115 64.5365 10.3398C64.9089 9.96814 65.3537 9.78584 65.8927 9.78481C66.4312 9.78584 66.877 9.96814 67.2485 10.3398C67.6182 10.7115 67.8027 11.1791 67.8034 11.7623C67.8027 12.3455 67.6182 12.8131 67.2485 13.1849C66.877 13.5565 66.4312 13.7388 65.8927 13.7398C65.3537 13.7388 64.9089 13.5565 64.5365 13.1849L64.4747 13.2454ZM67.8064 13.6779L67.7442 13.6181C67.2454 14.124 66.6355 14.3739 65.8927 14.3749C65.1495 14.3739 64.5396 14.124 64.0417 13.6181C63.544 13.1105 63.2983 12.4983 63.2976 11.7623C63.2983 11.0263 63.544 10.4142 64.0417 9.90657C64.5396 9.40067 65.1495 9.15044 65.8927 9.1494C66.6307 9.15044 67.2393 9.40171 67.7408 9.91027C68.2403 10.4202 68.4874 11.0314 68.4884 11.7623C68.4874 12.4983 68.241 13.1105 67.7442 13.6181L67.8064 13.6779L67.869 13.7378C68.3963 13.2017 68.663 12.5366 68.6624 11.7623C68.663 10.9924 68.3953 10.3288 67.8655 9.79023C67.3355 9.24963 66.6715 8.97624 65.8927 8.97718C65.1098 8.97624 64.4438 9.24834 63.9171 9.78687C63.3887 10.3233 63.123 10.988 63.1237 11.7623C63.123 12.5366 63.3887 13.2017 63.9171 13.7381C64.4438 14.2766 65.1098 14.5478 65.8927 14.5471C66.6752 14.5478 67.3412 14.2763 67.869 13.7378L67.8064 13.6779Z" fill="black"/>
<path d="M69.5167 14.3456V9.17898H70.3329L72.8695 13.1983H72.8984L72.8695 12.2026V9.17898H73.5406V14.3456H72.8406L70.1868 10.1315H70.1579L70.1868 11.1276V14.3456H69.5167Z" fill="black"/>
<path d="M69.5169 14.3459H69.6039V9.26541H70.2848L72.8214 13.2847H72.8986H72.9879L72.9567 12.2016V9.26541H73.4538V14.2598H72.8891L70.2353 10.0457H70.1581H70.0688L70.1 11.1293V14.2598H69.5169V14.3459H69.6039H69.5169V14.432H70.187H70.274V11.1265L70.2451 10.1295L70.1581 10.1319V10.218H70.187V10.1319L70.1132 10.1777L72.7925 14.432H73.5408H73.6278V9.09319H72.8697H72.7827V12.2039L72.8116 13.2009L72.8986 13.1986V13.1125H72.8697V13.1986L72.9435 13.1528L70.3813 9.09319H69.5169H69.4299V14.432H69.5169V14.3459Z" fill="black"/>
<path d="M96.7969 28.9845H98.4201V18.2197H96.7969V28.9845ZM111.417 22.0974L109.556 26.7645H109.501L107.57 22.0974H105.821L108.717 28.6205L107.066 32.2489H108.76L113.222 22.0974H111.417ZM102.212 27.7618C101.68 27.7618 100.938 27.4988 100.938 26.8476C100.938 26.0167 101.862 25.6982 102.659 25.6982C103.373 25.6982 103.708 25.8505 104.142 26.0585C104.016 27.0555 103.149 27.7618 102.212 27.7618ZM102.408 21.8619C101.232 21.8619 100.015 22.3745 99.5118 23.5101L100.952 24.1055C101.26 23.5101 101.834 23.3161 102.435 23.3161C103.275 23.3161 104.128 23.8149 104.142 24.7012V24.8119C103.848 24.6457 103.219 24.3965 102.449 24.3965C100.897 24.3965 99.3152 25.241 99.3152 26.82C99.3152 28.2603 100.589 29.1883 102.015 29.1883C103.107 29.1883 103.708 28.7036 104.087 28.1359H104.142V28.9667H105.709V24.8394C105.709 22.9286 104.268 21.8619 102.408 21.8619ZM92.3761 23.4078H90.0675V19.7179H92.3761C93.5896 19.7179 94.2786 20.7125 94.2786 21.5629C94.2786 22.3971 93.5896 23.4078 92.3761 23.4078ZM92.3344 18.2197H88.4451V28.9845H90.0675V24.9061H92.3344C94.1333 24.9061 95.9018 23.6167 95.9018 21.5629C95.9018 19.509 94.1333 18.2197 92.3344 18.2197ZM71.1258 27.7638C70.0044 27.7638 69.0656 26.8344 69.0656 25.5579C69.0656 24.268 70.0044 23.3245 71.1258 23.3245C72.2329 23.3245 73.1017 24.268 73.1017 25.5579C73.1017 26.8344 72.2329 27.7638 71.1258 27.7638ZM72.9896 22.7002H72.9335C72.5693 22.2702 71.8682 21.8818 70.9855 21.8818C69.1356 21.8818 67.44 23.4909 67.44 25.5579C67.44 27.6111 69.1356 29.2065 70.9855 29.2065C71.8682 29.2065 72.5693 28.818 72.9335 28.3743H72.9896V28.9014C72.9896 30.3028 72.2329 31.0518 71.0137 31.0518C70.0187 31.0518 69.402 30.3441 69.1495 29.7477L67.7343 30.3303C68.1407 31.3014 69.2199 32.4945 71.0137 32.4945C72.9196 32.4945 74.5312 31.3845 74.5312 28.6794V22.1038H72.9896V22.7002ZM75.6522 28.9845H77.2779V18.2194H75.6522V28.9845ZM79.6744 25.4331C79.6323 24.018 80.7815 23.2968 81.6082 23.2968C82.2533 23.2968 82.7996 23.6157 82.9814 24.0739L79.6744 25.4331ZM84.7194 24.2125C84.4115 23.3937 83.472 21.8818 81.5521 21.8818C79.6462 21.8818 78.0627 23.3662 78.0627 25.5441C78.0627 27.5973 79.6323 29.2065 81.7343 29.2065C83.4303 29.2065 84.4115 28.1799 84.8177 27.5835L83.5564 26.751C83.1363 27.3615 82.5613 27.7638 81.7343 27.7638C80.9075 27.7638 80.319 27.3891 79.9405 26.6541L84.8873 24.6285L84.7194 24.2125ZM45.3066 23.0055V24.5592H49.0624C48.9502 25.4331 48.6559 26.0712 48.2074 26.5152C47.6611 27.0564 46.8061 27.6528 45.3066 27.6528C42.9942 27.6528 41.1865 25.8078 41.1865 23.5188C41.1865 21.2299 42.9942 19.3846 45.3066 19.3846C46.554 19.3846 47.4646 19.8703 48.1374 20.4946L49.2445 19.3987C48.3056 18.5107 47.0582 17.8309 45.3066 17.8309C42.1393 17.8309 39.4767 20.3836 39.4767 23.5188C39.4767 26.6541 42.1393 29.2065 45.3066 29.2065C47.0165 29.2065 48.3056 28.6519 49.3145 27.6111C50.3516 26.5845 50.6741 25.1418 50.6741 23.9767C50.6741 23.6157 50.6461 23.2831 50.5898 23.0055H45.3066ZM54.944 27.7638C53.8226 27.7638 52.8556 26.8482 52.8556 25.5441C52.8556 24.2262 53.8226 23.3245 54.944 23.3245C56.0649 23.3245 57.032 24.2262 57.032 25.5441C57.032 26.8482 56.0649 27.7638 54.944 27.7638ZM54.944 21.8818C52.8977 21.8818 51.2299 23.4216 51.2299 25.5441C51.2299 27.6528 52.8977 29.2065 54.944 29.2065C56.9899 29.2065 58.6576 27.6528 58.6576 25.5441C58.6576 23.4216 56.9899 21.8818 54.944 21.8818ZM63.0454 27.7638C61.9244 27.7638 60.9573 26.8482 60.9573 25.5441C60.9573 24.2262 61.9244 23.3245 63.0454 23.3245C64.1664 23.3245 65.1334 24.2262 65.1334 25.5441C65.1334 26.8482 64.1664 27.7638 63.0454 27.7638ZM63.0454 21.8818C60.9991 21.8818 59.3318 23.4216 59.3318 25.5441C59.3318 27.6528 60.9991 29.2065 63.0454 29.2065C65.0913 29.2065 66.7591 27.6528 66.7591 25.5441C66.7591 23.4216 65.0913 21.8818 63.0454 21.8818Z" fill="black"/>
<path d="M12.9174 31.0421L12.8528 30.9809C12.5997 30.7158 12.4502 30.3041 12.4502 29.771V29.8964V10.8524C12.4502 10.8506 12.4502 10.8493 12.4502 10.848C12.4502 10.8496 12.4502 10.851 12.4502 10.8527V10.9785C12.4502 10.4012 12.6245 9.96637 12.9164 9.70563L23.6941 20.3742L12.9174 31.0421ZM12.4502 10.8469C12.4502 10.7995 12.4515 10.7534 12.454 10.708C12.4515 10.7531 12.4502 10.7995 12.4502 10.8469ZM12.454 10.706C12.454 10.7054 12.454 10.7047 12.4542 10.704C12.454 10.7047 12.454 10.7054 12.454 10.706ZM12.4542 10.6999C12.4542 10.6996 12.4542 10.6993 12.4542 10.6989C12.4542 10.6993 12.4542 10.6996 12.4542 10.6999Z" fill="url(#paint1_linear_1_411)"/>
<path d="M27.2861 24.0573L27.368 24.0112L31.6243 21.6172C32.0301 21.3889 32.3005 21.112 32.4354 20.8191C32.3009 21.112 32.0303 21.3892 31.6243 21.6176L27.368 24.0115L27.2861 24.0573ZM27.2871 23.9311L23.6941 20.3737L27.2868 16.817L31.6243 19.2563C32.1751 19.5661 32.4843 19.9654 32.536 20.3734C32.536 20.3737 32.536 20.3744 32.536 20.375C32.4843 20.7821 32.1751 21.1817 31.6243 21.4914L27.2871 23.9311Z" fill="url(#paint2_linear_1_411)"/>
<path d="M13.6858 31.4487C13.3847 31.4487 13.122 31.3519 12.9172 31.1689L12.9175 31.1685C13.1224 31.3515 13.3854 31.4487 13.6865 31.4487C13.7126 31.4487 13.7391 31.448 13.766 31.4467C13.7388 31.448 13.7119 31.4487 13.6858 31.4487ZM13.6861 31.3226C13.3851 31.3229 13.1224 31.2257 12.9175 31.0427V31.0425L23.6941 20.3746L27.2872 23.9319L14.6607 31.0337C14.3113 31.2298 13.9803 31.3226 13.6861 31.3226ZM12.9145 31.1665C12.8954 31.1494 12.8767 31.1312 12.8584 31.1124L12.9145 31.1665Z" fill="url(#paint3_linear_1_411)"/>
<path d="M23.6938 20.3739L12.9161 9.70532C13.121 9.52268 13.3833 9.4258 13.684 9.4258C13.979 9.4258 14.3103 9.51898 14.6603 9.71539L27.2865 16.8171L23.6938 20.3739ZM27.3677 16.7368L14.6603 9.58967C14.3103 9.39317 13.979 9.3 13.684 9.3C13.6826 9.3 13.6817 9.3 13.6803 9.3C13.682 9.3 13.6833 9.3 13.6854 9.3C13.9797 9.3 14.3106 9.39282 14.6603 9.58933L27.3677 16.7368Z" fill="url(#paint4_linear_1_411)"/>
<path d="M13.7661 31.4464C14.0395 31.4309 14.3423 31.3377 14.6607 31.1591L27.2862 24.0578L14.6607 31.1591C14.3426 31.3381 14.0395 31.4309 13.7661 31.4464ZM12.9172 31.1685L12.9145 31.1662C12.9155 31.1669 12.9165 31.1678 12.9172 31.1685ZM12.8584 31.112L12.8529 31.1067V31.1064C12.855 31.1083 12.8567 31.1103 12.8584 31.112Z" fill="black"/>
<path d="M27.2863 24.0573L27.3678 24.0115L27.2863 24.0573Z" fill="url(#paint5_linear_1_411)"/>
<path d="M13.6865 31.4484C13.3855 31.4484 13.1224 31.3511 12.9176 31.1682L12.9172 31.1685C12.9165 31.1678 12.9155 31.1669 12.9145 31.1662L12.8584 31.112C12.8567 31.1103 12.855 31.1083 12.8529 31.1063L12.9176 31.0424C13.1224 31.2253 13.3851 31.3226 13.6862 31.3222C13.9804 31.3222 14.3114 31.2294 14.6607 31.0333L27.2872 23.9316L27.3681 24.0116L27.2862 24.0577L14.6607 31.1591C14.3423 31.3377 14.0395 31.4309 13.7661 31.4464C13.7392 31.4477 13.7126 31.4484 13.6865 31.4484Z" fill="url(#paint6_linear_1_411)"/>
<path d="M12.8528 31.1068C12.5997 30.8417 12.4502 30.43 12.4502 29.8969V29.8965C12.4502 30.43 12.5997 30.8413 12.8528 31.1065V31.1068Z" fill="black"/>
<path d="M12.8528 31.1061C12.5997 30.8409 12.4502 30.4296 12.4502 29.8961V29.7707C12.4502 30.3038 12.5997 30.7155 12.8528 30.9806L12.9174 31.0418L12.8528 31.1061Z" fill="url(#paint7_linear_1_411)"/>
<path d="M12.8529 31.1061L12.9169 31.0425V31.0427L12.8529 31.1061Z" fill="url(#paint8_linear_1_411)"/>
<path d="M32.4352 20.8192C32.5021 20.6739 32.5357 20.5245 32.5357 20.3751C32.5357 20.3749 32.5357 20.3745 32.5357 20.3745C32.5357 20.5242 32.5021 20.6735 32.4352 20.8192Z" fill="black"/>
<path d="M27.3684 24.0118L27.2875 23.9318L31.6247 21.4921C32.1755 21.1823 32.4847 20.7827 32.5364 20.3757C32.5364 20.5251 32.5027 20.6744 32.4358 20.8197C32.3009 21.1127 32.0305 21.3895 31.6247 21.6179L27.3684 24.0118Z" fill="url(#paint9_linear_1_411)"/>
<path d="M32.5361 20.3743V20.3739C32.5357 19.9235 32.2316 19.4731 31.6243 19.1314L27.3681 16.7374H27.3677L27.3681 16.7372L31.6243 19.131C32.2323 19.4728 32.5367 19.9238 32.5361 20.3743Z" fill="#404040"/>
<path d="M32.5359 20.3734C32.4843 19.9654 32.175 19.5661 31.6242 19.2563L27.2867 16.817L27.3676 16.7369H27.368L31.6242 19.1308C32.2315 19.4726 32.5356 19.923 32.5359 20.3734Z" fill="url(#paint10_linear_1_411)"/>
<path d="M12.4502 10.8479C12.4502 10.8476 12.4502 10.8472 12.4502 10.8469C12.4502 10.8472 12.4502 10.8476 12.4502 10.8479ZM12.454 10.708C12.454 10.7073 12.454 10.7066 12.454 10.7059C12.454 10.7066 12.454 10.7073 12.454 10.708ZM12.4542 10.7039C12.4542 10.7025 12.4542 10.7013 12.4542 10.6999C12.4542 10.7013 12.4542 10.7025 12.4542 10.7039ZM12.4542 10.6988C12.5046 9.81424 12.9905 9.30326 13.6779 9.30025C13.3799 9.30197 13.1203 9.39884 12.9171 9.58011V9.57976L12.9147 9.58217C12.8933 9.60129 12.8729 9.62152 12.8528 9.64236C12.6245 9.88149 12.4804 10.2397 12.4542 10.6988Z" fill="#404040"/>
<path d="M12.4502 10.9785V10.8527C12.4502 10.851 12.4502 10.8496 12.4502 10.848C12.4502 10.8476 12.4502 10.8473 12.4502 10.8469C12.4502 10.7995 12.4515 10.7531 12.454 10.708C12.454 10.7074 12.454 10.7067 12.454 10.706C12.454 10.7054 12.454 10.7047 12.4542 10.704C12.4542 10.7026 12.4542 10.7013 12.4542 10.7C12.4542 10.6996 12.4542 10.6993 12.4542 10.6989C12.4804 10.2398 12.6245 9.88156 12.8528 9.64243L12.9164 9.70564C12.6245 9.96638 12.4502 10.4012 12.4502 10.9785ZM12.9147 9.58224L12.9171 9.57983C12.9164 9.58087 12.9154 9.58155 12.9147 9.58224Z" fill="url(#paint11_linear_1_411)"/>
<path d="M27.2869 16.8169L14.6607 9.71515C14.3107 9.51873 13.9794 9.42556 13.6845 9.42556C13.3837 9.42556 13.1214 9.52244 12.9165 9.70508L12.8529 9.64187C12.873 9.62103 12.8934 9.6008 12.9148 9.58168C12.9155 9.58099 12.9165 9.5803 12.9172 9.57961C13.1204 9.39835 13.38 9.30148 13.678 9.29976C13.6787 9.29976 13.6797 9.29976 13.6807 9.29976C13.6821 9.29976 13.6831 9.29976 13.6845 9.29976C13.9794 9.29976 14.3107 9.39293 14.6607 9.58943L27.3681 16.7366L27.3678 16.7368L27.2869 16.8169Z" fill="url(#paint12_linear_1_411)"/>
</g>
<defs>
<filter id="filter0_bi_1_411" x="-77.468" y="-77.468" width="280.608" height="195.731" filterUnits="userSpaceOnUse" color-interpolation-filters="sRGB">
<feFlood flood-opacity="0" result="BackgroundImageFix"/>
<feGaussianBlur in="BackgroundImageFix" stdDeviation="38.734"/>
<feComposite in2="SourceAlpha" operator="in" result="effect1_backgroundBlur_1_411"/>
<feBlend mode="normal" in="SourceGraphic" in2="effect1_backgroundBlur_1_411" result="shape"/>
<feColorMatrix in="SourceAlpha" type="matrix" values="0 0 0 0 0 0 0 0 0 0 0 0 0 0 0 0 0 0 127 0" result="hardAlpha"/>
<feOffset dy="2.76672"/>
<feGaussianBlur stdDeviation="4.49591"/>
<feComposite in2="hardAlpha" operator="arithmetic" k2="-1" k3="1"/>
<feColorMatrix type="matrix" values="0 0 0 0 1 0 0 0 0 1 0 0 0 0 1 0 0 0 0.01 0"/>
<feBlend mode="normal" in2="shape" result="effect2_innerShadow_1_411"/>
</filter>
<radialGradient id="paint0_radial_1_411" cx="0" cy="0" r="1" gradientUnits="userSpaceOnUse" gradientTransform="translate(62.8361 20.3973) rotate(90) scale(20.3973 62.8361)">
<stop offset="0.520833" stop-color="white"/>
<stop offset="1" stop-color="white" stop-opacity="0.96"/>
</radialGradient>
<linearGradient id="paint1_linear_1_411" x1="22.7384" y1="10.6515" x2="8.28776" y2="25.2495" gradientUnits="userSpaceOnUse">
<stop stop-color="#00A0FF"/>
<stop offset="0.00657445" stop-color="#00A1FF"/>
<stop offset="0.2601" stop-color="#00BEFF"/>
<stop offset="0.5122" stop-color="#00D2FF"/>
<stop offset="0.7604" stop-color="#00DFFF"/>
<stop offset="1" stop-color="#00E3FF"/>
</linearGradient>
<linearGradient id="paint2_linear_1_411" x1="33.2071" y1="20.3742" x2="12.1585" y2="20.3742" gradientUnits="userSpaceOnUse">
<stop stop-color="#FFE000"/>
<stop offset="0.4087" stop-color="#FFBD00"/>
<stop offset="0.7754" stop-color="#FFA500"/>
<stop offset="1" stop-color="#FF9C00"/>
</linearGradient>
<linearGradient id="paint3_linear_1_411" x1="25.3718" y1="22.351" x2="5.77564" y2="42.1471" gradientUnits="userSpaceOnUse">
<stop stop-color="#FF3A44"/>
<stop offset="1" stop-color="#C31162"/>
</linearGradient>
<linearGradient id="paint4_linear_1_411" x1="10.1227" y1="3.30296" x2="18.8731" y2="12.1427" gradientUnits="userSpaceOnUse">
<stop stop-color="#32A071"/>
<stop offset="0.0685" stop-color="#2DA771"/>
<stop offset="0.4762" stop-color="#15CF74"/>
<stop offset="0.8009" stop-color="#06E775"/>
<stop offset="1" stop-color="#00F076"/>
</linearGradient>
<linearGradient id="paint5_linear_1_411" x1="33.1705" y1="20.3971" x2="12.2531" y2="20.3971" gradientUnits="userSpaceOnUse">
<stop stop-color="#CCB300"/>
<stop offset="0.4087" stop-color="#CC9700"/>
<stop offset="0.7754" stop-color="#CC8400"/>
<stop offset="1" stop-color="#CC7D00"/>
</linearGradient>
<linearGradient id="paint6_linear_1_411" x1="25.3718" y1="22.3507" x2="5.77568" y2="42.1467" gradientUnits="userSpaceOnUse">
<stop stop-color="#CC2E36"/>
<stop offset="1" stop-color="#9C0E4E"/>
</linearGradient>
<linearGradient id="paint7_linear_1_411" x1="22.7384" y1="10.6512" x2="8.28779" y2="25.2493" gradientUnits="userSpaceOnUse">
<stop stop-color="#008DE0"/>
<stop offset="0.00657445" stop-color="#008DE0"/>
<stop offset="0.2601" stop-color="#00A7E0"/>
<stop offset="0.5122" stop-color="#00B8E0"/>
<stop offset="0.7604" stop-color="#00C4E0"/>
<stop offset="1" stop-color="#00C7E0"/>
</linearGradient>
<linearGradient id="paint8_linear_1_411" x1="25.2466" y1="22.4384" x2="5.84726" y2="42.0363" gradientUnits="userSpaceOnUse">
<stop stop-color="#E0333C"/>
<stop offset="1" stop-color="#AB0F56"/>
</linearGradient>
<linearGradient id="paint9_linear_1_411" x1="33.2075" y1="20.3749" x2="12.159" y2="20.3749" gradientUnits="userSpaceOnUse">
<stop stop-color="#E0C500"/>
<stop offset="0.4087" stop-color="#E0A600"/>
<stop offset="0.7754" stop-color="#E09100"/>
<stop offset="1" stop-color="#E08900"/>
</linearGradient>
<linearGradient id="paint10_linear_1_411" x1="33.207" y1="20.3743" x2="12.1585" y2="20.3743" gradientUnits="userSpaceOnUse">
<stop stop-color="#FFE840"/>
<stop offset="0.4087" stop-color="#FFCE40"/>
<stop offset="0.7754" stop-color="#FFBC40"/>
<stop offset="1" stop-color="#FFB540"/>
</linearGradient>
<linearGradient id="paint11_linear_1_411" x1="22.7384" y1="10.6515" x2="8.28776" y2="25.2495" gradientUnits="userSpaceOnUse">
<stop stop-color="#40B8FF"/>
<stop offset="0.00657445" stop-color="#40B9FF"/>
<stop offset="0.2601" stop-color="#40CEFF"/>
<stop offset="0.5122" stop-color="#40DDFF"/>
<stop offset="0.7604" stop-color="#40E7FF"/>
<stop offset="1" stop-color="#40EAFF"/>
</linearGradient>
<linearGradient id="paint12_linear_1_411" x1="10.1231" y1="3.30272" x2="18.8735" y2="12.1424" gradientUnits="userSpaceOnUse">
<stop stop-color="#65B895"/>
<stop offset="0.0685" stop-color="#62BD95"/>
<stop offset="0.4762" stop-color="#50DB97"/>
<stop offset="0.8009" stop-color="#44ED98"/>
<stop offset="1" stop-color="#40F498"/>
</linearGradient>
</defs>
</svg>
