<svg width="26" height="29" viewBox="0 0 26 29" fill="none" xmlns="http://www.w3.org/2000/svg">
<rect y="3" width="26" height="26" rx="13" fill="#4363FF"/>
<path d="M9.97656 11.0391H14.2031C15.2969 11.0391 16.1875 11.3828 16.875 12.0703C17.5677 12.7578 17.9141 13.6484 17.9141 14.7422C17.9141 15.8411 17.5625 16.737 16.8594 17.4297C16.1615 18.1172 15.2578 18.4609 14.1484 18.4609H11.7266V22.3125H9.97656V11.0391ZM11.7266 12.5156V16.9922H13.7344C14.4948 16.9922 15.0833 16.7969 15.5 16.4062C15.9167 16.0156 16.125 15.4635 16.125 14.75C16.125 14.0417 15.9167 13.4922 15.5 13.1016C15.0885 12.7109 14.5026 12.5156 13.7422 12.5156H11.7266Z" fill="url(#paint0_linear_1_332)"/>
<defs>
<linearGradient id="paint0_linear_1_332" x1="12.7564" y1="9.3125" x2="12.7564" y2="20.5446" gradientUnits="userSpaceOnUse">
<stop stop-color="white"/>
<stop offset="1" stop-color="#E9FFF4"/>
</linearGradient>
</defs>
</svg>
