<svg width="33" height="41" viewBox="0 0 33 41" fill="none" xmlns="http://www.w3.org/2000/svg">
<rect x="3" y="4" width="26" height="26" rx="13" fill="#E22121"/>
<g filter="url(#filter0_d_1_341)">
<path d="M24.1102 16.4734L23.0326 15.2122C22.833 14.9727 22.6654 14.5257 22.6654 14.2064V12.8493C22.6654 12.0032 21.9709 11.3087 21.1248 11.3087H19.7678C19.4485 11.3087 18.9935 11.1411 18.754 10.9415L17.4928 9.8639C16.942 9.39294 16.0399 9.39294 15.4892 9.8639L14.212 10.9415C13.9725 11.1411 13.5255 11.3087 13.2062 11.3087H11.8252C10.9791 11.3087 10.2846 12.0032 10.2846 12.8493V14.2064C10.2846 14.5177 10.1249 14.9647 9.92539 15.2042L8.84776 16.4734C8.38477 17.0322 8.38477 17.9262 8.84776 18.469L9.92539 19.7382C10.1249 19.9697 10.2846 20.4247 10.2846 20.736V22.101C10.2846 22.9472 10.9791 23.6416 11.8252 23.6416H13.2142C13.5255 23.6416 13.9805 23.8093 14.2199 24.0088L15.4812 25.0865C16.032 25.5574 16.934 25.5574 17.4848 25.0865L18.746 24.0088C18.9855 23.8093 19.4325 23.6416 19.7518 23.6416H21.1088C21.9549 23.6416 22.6494 22.9472 22.6494 22.101V20.744C22.6494 20.4247 22.8171 19.9777 23.0166 19.7382L24.0942 18.477C24.5812 17.9342 24.5812 17.0322 24.1102 16.4734ZM15.8803 14.39C15.8803 14.0627 16.1517 13.7913 16.479 13.7913C16.8063 13.7913 17.0777 14.0627 17.0777 14.39V18.2455C17.0777 18.5728 16.8063 18.8442 16.479 18.8442C16.1517 18.8442 15.8803 18.5728 15.8803 18.2455V14.39ZM16.479 21.3666C16.0399 21.3666 15.6807 21.0074 15.6807 20.5684C15.6807 20.1293 16.032 19.7701 16.479 19.7701C16.918 19.7701 17.2772 20.1293 17.2772 20.5684C17.2772 21.0074 16.926 21.3666 16.479 21.3666Z" fill="url(#paint0_linear_1_341)"/>
</g>
<defs>
<filter id="filter0_d_1_341" x="-1.52115" y="6.21618" width="36" height="36" filterUnits="userSpaceOnUse" color-interpolation-filters="sRGB">
<feFlood flood-opacity="0" result="BackgroundImageFix"/>
<feColorMatrix in="SourceAlpha" type="matrix" values="0 0 0 0 0 0 0 0 0 0 0 0 0 0 0 0 0 0 127 0" result="hardAlpha"/>
<feOffset dy="6.73684"/>
<feGaussianBlur stdDeviation="4.21053"/>
<feComposite in2="hardAlpha" operator="out"/>
<feColorMatrix type="matrix" values="0 0 0 0 0 0 0 0 0 0 0 0 0 0 0 0 0 0 0.15 0"/>
<feBlend mode="normal" in2="BackgroundImageFix" result="effect1_dropShadow_1_341"/>
<feBlend mode="normal" in="SourceGraphic" in2="effect1_dropShadow_1_341" result="shape"/>
</filter>
<linearGradient id="paint0_linear_1_341" x1="16.481" y1="9.51068" x2="16.481" y2="25.4397" gradientUnits="userSpaceOnUse">
<stop stop-color="white"/>
<stop offset="1" stop-color="#E9FFF4"/>
</linearGradient>
</defs>
</svg>
