<svg width="77" height="79" viewBox="0 0 77 79" fill="none" xmlns="http://www.w3.org/2000/svg">
<g filter="url(#filter0_d_1_395)">
<rect x="18" y="11" width="38.5816" height="39" rx="19.2908" fill="#2CBA4B"/>
<path d="M45.2408 31.1943C44.889 31.1943 44.5942 30.9281 44.5562 30.5762C44.3279 28.4841 43.2058 26.6012 41.4751 25.403C41.1613 25.1843 41.0852 24.7564 41.3039 24.4426C41.5226 24.1288 41.9506 24.0527 42.2644 24.2714C44.3279 25.7073 45.6593 27.9516 45.935 30.4336C45.9731 30.8139 45.6973 31.1563 45.3169 31.1943C45.2884 31.1943 45.2694 31.1943 45.2408 31.1943Z" fill="white"/>
<path d="M29.4358 31.2416C29.4168 31.2416 29.3882 31.2416 29.3692 31.2416C28.9888 31.2036 28.7131 30.8612 28.7511 30.4808C29.0079 27.9989 30.3202 25.7546 32.3647 24.3092C32.669 24.0905 33.1065 24.1665 33.3252 24.4708C33.5439 24.7847 33.4678 25.2126 33.1635 25.4313C31.4518 26.6485 30.3392 28.5314 30.13 30.614C30.0919 30.9753 29.7876 31.2416 29.4358 31.2416Z" fill="white"/>
<path d="M41.0852 39.1536C39.9155 39.7147 38.6603 40 37.3479 40C35.9786 40 34.6758 39.6957 33.4586 39.0776C33.1162 38.9159 32.9831 38.4975 33.1543 38.1551C33.3159 37.8128 33.7343 37.6797 34.0767 37.8413C34.6758 38.1456 35.3129 38.3548 35.9596 38.4785C36.8344 38.6496 37.7283 38.6591 38.6032 38.507C39.2499 38.3929 39.887 38.1932 40.4766 37.9079C40.8284 37.7462 41.2468 37.8794 41.399 38.2312C41.5702 38.5736 41.437 38.992 41.0852 39.1536Z" fill="white"/>
<path d="M37.3383 21C35.8644 21 34.6566 22.1982 34.6566 23.6817C34.6566 25.1652 35.8548 26.3634 37.3383 26.3634C38.8218 26.3634 40.02 25.1652 40.02 23.6817C40.02 22.1982 38.8218 21 37.3383 21Z" fill="white"/>
<path d="M30.6817 32.2783C29.2077 32.2783 28 33.4765 28 34.96C28 36.4435 29.1982 37.6417 30.6817 37.6417C32.1652 37.6417 33.3634 36.4435 33.3634 34.96C33.3634 33.4765 32.1557 32.2783 30.6817 32.2783Z" fill="white"/>
<path d="M43.8998 32.2783C42.4258 32.2783 41.2181 33.4765 41.2181 34.96C41.2181 36.4435 42.4163 37.6417 43.8998 37.6417C45.3833 37.6417 46.5815 36.4435 46.5815 34.96C46.5815 33.4765 45.3833 32.2783 43.8998 32.2783Z" fill="white"/>
</g>
<defs>
<filter id="filter0_d_1_395" x="-2" y="0" width="78.5816" height="79" filterUnits="userSpaceOnUse" color-interpolation-filters="sRGB">
<feFlood flood-opacity="0" result="BackgroundImageFix"/>
<feColorMatrix in="SourceAlpha" type="matrix" values="0 0 0 0 0 0 0 0 0 0 0 0 0 0 0 0 0 0 127 0" result="hardAlpha"/>
<feMorphology radius="4" operator="erode" in="SourceAlpha" result="effect1_dropShadow_1_395"/>
<feOffset dy="9"/>
<feGaussianBlur stdDeviation="12"/>
<feComposite in2="hardAlpha" operator="out"/>
<feColorMatrix type="matrix" values="0 0 0 0 0 0 0 0 0 0 0 0 0 0 0 0 0 0 0.1 0"/>
<feBlend mode="normal" in2="BackgroundImageFix" result="effect1_dropShadow_1_395"/>
<feBlend mode="normal" in="SourceGraphic" in2="effect1_dropShadow_1_395" result="shape"/>
</filter>
</defs>
</svg>
