<svg width="100" height="37" viewBox="0 0 100 37" fill="none" xmlns="http://www.w3.org/2000/svg">
<rect width="52.1277" height="36.1702" rx="18.0851" fill="#6EE97A"/>
<path d="M12.2881 13.9809C11.4237 13.9809 10.7006 14.2801 10.1189 14.8785C9.54538 15.4686 9.2254 16.2291 9.15891 17.1599H15.33C15.2967 16.2208 15.0017 15.4561 14.4448 14.866C13.888 14.2759 13.1691 13.9809 12.2881 13.9809ZM15.3424 21.1119H18.2472C18.0477 22.3669 17.4119 23.385 16.3398 24.1662C15.2676 24.9392 13.9545 25.3256 12.4003 25.3256C10.4222 25.3256 8.86802 24.7189 7.7377 23.5055C6.60738 22.2838 6.04222 20.6174 6.04222 18.5063C6.04222 16.4119 6.60323 14.7331 7.72524 13.4698C8.85556 12.2065 10.3723 11.5748 12.2756 11.5748C14.1456 11.5748 15.6292 12.1774 16.7262 13.3825C17.8233 14.5793 18.3718 16.1834 18.3718 18.1947V19.2045H9.13398V19.3915C9.13398 20.4553 9.43318 21.3113 10.0316 21.9596C10.6383 22.6079 11.4486 22.932 12.4626 22.932C13.1774 22.932 13.7924 22.77 14.3077 22.4458C14.8313 22.1134 15.1762 21.6687 15.3424 21.1119ZM31.5123 16.5615H28.5826C28.4496 15.8218 28.1338 15.2276 27.6351 14.7788C27.1365 14.3217 26.4882 14.0931 25.6903 14.0931C24.7096 14.0931 23.9284 14.4837 23.3466 15.265C22.7648 16.0379 22.4739 17.1017 22.4739 18.4565C22.4739 19.8278 22.7648 20.8999 23.3466 21.6729C23.9284 22.4375 24.7179 22.8198 25.7153 22.8198C26.4965 22.8198 27.1365 22.612 27.6351 22.1965C28.1338 21.7726 28.4538 21.1825 28.5951 20.4262H31.5248C31.4001 21.9056 30.8059 23.0941 29.742 23.9917C28.6865 24.881 27.3318 25.3256 25.6779 25.3256C23.733 25.3256 22.1872 24.7148 21.0402 23.493C19.8933 22.263 19.3198 20.5841 19.3198 18.4565C19.3198 16.3537 19.8933 14.6832 21.0402 13.4448C22.1872 12.1982 23.7247 11.5748 25.6529 11.5748C27.3484 11.5748 28.7198 12.0486 29.767 12.996C30.8225 13.9352 31.4043 15.1237 31.5123 16.5615ZM43.3812 23.493C42.2259 24.7148 40.6717 25.3256 38.7186 25.3256C36.7655 25.3256 35.2113 24.7148 34.056 23.493C32.9008 22.263 32.3231 20.5841 32.3231 18.4565C32.3231 16.3371 32.9049 14.6624 34.0685 13.4324C35.2321 12.194 36.7821 11.5748 38.7186 11.5748C40.6634 11.5748 42.2134 12.194 43.3687 13.4324C44.5322 14.6624 45.114 16.3371 45.114 18.4565C45.114 20.5841 44.5364 22.263 43.3812 23.493ZM36.3499 21.7103C36.9317 22.4832 37.7212 22.8697 38.7186 22.8697C39.7159 22.8697 40.5055 22.4832 41.0873 21.7103C41.6691 20.9373 41.9599 19.8527 41.9599 18.4565C41.9599 17.0685 41.6691 15.988 41.0873 15.2151C40.5055 14.4339 39.7159 14.0432 38.7186 14.0432C37.7296 14.0432 36.94 14.4339 36.3499 15.2151C35.7681 15.988 35.4772 17.0685 35.4772 18.4565C35.4772 19.8527 35.7681 20.9373 36.3499 21.7103Z" fill="#050026"/>
<path d="M79.2355 17.3963C79.2355 18.4661 78.7776 19.43 77.7746 20.3643C76.7337 21.3338 75.1799 22.1887 73.2593 22.8893C69.4216 24.2891 64.6914 24.8688 61.4325 24.8688C60.6495 24.8688 60.0894 24.8349 59.6927 24.7798C59.728 24.6068 59.7762 24.3977 59.8395 24.1395C59.8701 24.0147 59.9044 23.8777 59.9411 23.7311C60.0373 23.3468 60.15 22.8969 60.2555 22.4286C60.557 21.091 60.8471 19.4163 60.8471 17.3963C60.8471 15.3719 60.5559 13.7708 60.2431 12.527C60.1299 12.077 60.0125 11.6695 59.9124 11.3287C60.3162 11.31 60.8149 11.3013 61.4325 11.3013C64.8193 11.3013 69.574 11.5614 73.415 12.6423C75.3415 13.1844 76.8619 13.8859 77.8631 14.7216C78.8012 15.5047 79.2355 16.3502 79.2355 17.3963ZM59.6138 10.2054C59.614 10.2057 59.615 10.2126 59.6156 10.2254C59.6138 10.2116 59.6135 10.2052 59.6138 10.2054Z" fill="#050026" stroke="#050026" stroke-width="4.33885"/>
<path d="M83.4712 4.99963L83.6307 5.21605C89.2695 12.8688 89.2695 23.3013 83.6307 30.954L83.4712 31.1705" stroke="#050026" stroke-width="4.91736" stroke-linecap="round"/>
<path d="M93.4591 12.928C93.2802 12.033 93.9752 11.1915 94.8581 11.4228C95.1608 11.502 95.4584 11.602 95.7487 11.7223C96.5843 12.0684 97.3435 12.5757 97.983 13.2152C98.6226 13.8547 99.1299 14.614 99.476 15.4495C99.8221 16.2851 100 17.1807 100 18.0851C100 18.9895 99.8221 19.8851 99.476 20.7207C99.1299 21.5562 98.6226 22.3155 97.983 22.955C97.3435 23.5945 96.5843 24.1018 95.7487 24.4479C95.4584 24.5682 95.1608 24.6682 94.8581 24.7474C93.9752 24.9787 93.2802 24.1372 93.4591 23.2422L93.5829 22.6233C94.1821 19.6275 94.1821 16.5427 93.5829 13.5469L93.4591 12.928Z" fill="#050026"/>
</svg>
