<svg width="148" height="76" viewBox="0 0 148 76" fill="none" xmlns="http://www.w3.org/2000/svg">
<rect width="57.3404" height="39.7872" rx="19.8936" fill="#6EE97A" fill-opacity="0.1"/>
<path d="M13.5169 15.9789C12.5661 15.9789 11.7707 16.3081 11.1307 16.9663C10.4999 17.6154 10.1479 18.4519 10.0748 19.4759H16.8629C16.8264 18.4428 16.5018 17.6017 15.8893 16.9526C15.2768 16.3035 14.486 15.9789 13.5169 15.9789ZM16.8767 23.823H20.0719C19.8525 25.2035 19.1531 26.3234 17.9737 27.1828C16.7944 28.033 15.3499 28.4581 13.6403 28.4581C11.4644 28.4581 9.75483 27.7908 8.51148 26.456C7.26813 25.1121 6.64645 23.279 6.64645 20.9569C6.64645 18.6531 7.26356 16.8063 8.49776 15.4167C9.74111 14.0271 11.4096 13.3323 13.5032 13.3323C15.5602 13.3323 17.1921 13.9951 18.3988 15.3207C19.6056 16.6372 20.209 18.4016 20.209 20.6141V21.7249H10.0474V21.9306C10.0474 23.1008 10.3765 24.0424 11.0347 24.7555C11.7021 25.4686 12.5935 25.8252 13.7089 25.8252C14.4951 25.8252 15.1716 25.6469 15.7384 25.2903C16.3144 24.9247 16.6938 24.4355 16.8767 23.823ZM34.6635 18.8176H31.4409C31.2946 18.004 30.9472 17.3503 30.3986 16.8566C29.8501 16.3538 29.137 16.1024 28.2593 16.1024C27.1806 16.1024 26.3212 16.532 25.6812 17.3914C25.0413 18.2417 24.7213 19.4119 24.7213 20.9021C24.7213 22.4105 25.0413 23.5899 25.6812 24.4401C26.3212 25.2812 27.1897 25.7018 28.2868 25.7018C29.1461 25.7018 29.8501 25.4732 30.3986 25.0161C30.9472 24.5498 31.2992 23.9007 31.4546 23.0688H34.6772C34.5401 24.6961 33.8864 26.0034 32.7162 26.9908C31.5551 27.969 30.0649 28.4581 28.2456 28.4581C26.1063 28.4581 24.4059 27.7862 23.1442 26.4423C21.8826 25.0892 21.2518 23.2425 21.2518 20.9021C21.2518 18.5891 21.8826 16.7515 23.1442 15.3893C24.4059 14.0179 26.0972 13.3323 28.2182 13.3323C30.0832 13.3323 31.5917 13.8534 32.7436 14.8956C33.9047 15.9287 34.5447 17.236 34.6635 18.8176ZM47.7192 26.4423C46.4485 27.7862 44.7388 28.4581 42.5904 28.4581C40.442 28.4581 38.7324 27.7862 37.4616 26.4423C36.1908 25.0892 35.5554 23.2425 35.5554 20.9021C35.5554 18.5708 36.1954 16.7286 37.4753 15.3755C38.7552 14.0133 40.4603 13.3323 42.5904 13.3323C44.7297 13.3323 46.4347 14.0133 47.7055 15.3755C48.9854 16.7286 49.6254 18.5708 49.6254 20.9021C49.6254 23.2425 48.99 25.0892 47.7192 26.4423ZM39.9849 24.4813C40.6248 25.3315 41.4933 25.7566 42.5904 25.7566C43.6875 25.7566 44.556 25.3315 45.196 24.4813C45.8359 23.631 46.1559 22.438 46.1559 20.9021C46.1559 19.3753 45.8359 18.1868 45.196 17.3366C44.556 16.4772 43.6875 16.0475 42.5904 16.0475C41.5025 16.0475 40.634 16.4772 39.9849 17.3366C39.3449 18.1868 39.0249 19.3753 39.0249 20.9021C39.0249 22.438 39.3449 23.631 39.9849 24.4813Z" fill="#6EE97A"/>
<path d="M87.159 19.1358C87.159 20.3126 86.6552 21.3729 85.5519 22.4006C84.4069 23.4671 82.6977 24.4075 80.5851 25.1781C76.3636 26.7179 71.1604 27.3555 67.5757 27.3555C66.7143 27.3555 66.0983 27.3182 65.6618 27.2577C65.7007 27.0674 65.7537 26.8374 65.8233 26.5533C65.857 26.416 65.8947 26.2653 65.9351 26.1041C66.0409 25.6814 66.1648 25.1865 66.2809 24.6714C66.6125 23.2 66.9317 21.3578 66.9317 19.1358C66.9317 16.909 66.6113 15.1478 66.2672 13.7796C66.1428 13.2846 66.0136 12.8364 65.9035 12.4614C66.3477 12.4409 66.8962 12.4313 67.5757 12.4313C71.3011 12.4313 76.5313 12.7174 80.7564 13.9064C82.8755 14.5028 84.5479 15.2744 85.6493 16.1937C86.6812 17.055 87.159 17.9851 87.159 19.1358ZM65.575 11.2259C65.5753 11.2261 65.5764 11.2338 65.5771 11.2479C65.5751 11.2326 65.5747 11.2256 65.575 11.2259Z" fill="#6EE97A" stroke="#6EE97A" stroke-width="4.77273"/>
<path d="M91.8182 5.49951L91.9936 5.73756C98.1964 14.1556 98.1964 25.6313 91.9936 34.0493L91.8182 34.2874" stroke="#6EE97A" stroke-width="5.40909" stroke-linecap="round"/>
<path d="M102.805 14.2206C102.608 13.2362 103.373 12.3106 104.344 12.5649C104.677 12.6521 105.004 12.7621 105.324 12.8944C106.243 13.2751 107.078 13.8331 107.781 14.5366C108.485 15.2401 109.043 16.0752 109.424 16.9944C109.804 17.9135 110 18.8986 110 19.8935C110 20.8883 109.804 21.8735 109.424 22.7926C109.043 23.7117 108.485 24.5469 107.781 25.2504C107.078 25.9538 106.243 26.5119 105.324 26.8926C105.004 27.0249 104.677 27.1348 104.344 27.222C103.373 27.4764 102.608 26.5508 102.805 25.5663L102.941 24.8855C103.6 21.5901 103.6 18.1968 102.941 14.9014L102.805 14.2206Z" fill="#6EE97A"/>
<path d="M6.64844 71.0216C5.51302 71.0216 4.47135 70.7508 3.52344 70.2091C2.58073 69.6674 1.83594 68.9226 1.28906 67.9747C0.742188 67.0268 0.46875 65.9773 0.46875 64.8263C0.46875 63.6753 0.742188 62.6258 1.28906 61.6779C1.83594 60.7299 2.58073 59.9878 3.52344 59.4513C4.47135 58.9096 5.51302 58.6388 6.64844 58.6388C7.79427 58.6388 8.83854 58.9096 9.78125 59.4513C10.7292 59.9878 11.474 60.7299 12.0156 61.6779C12.5625 62.6258 12.8359 63.6753 12.8359 64.8263C12.8359 65.9773 12.5625 67.0268 12.0156 67.9747C11.474 68.9226 10.7292 69.6674 9.78125 70.2091C8.83333 70.7508 7.78906 71.0216 6.64844 71.0216ZM6.64844 69.8575C7.34115 69.8575 7.9974 69.7299 8.61719 69.4747C9.23698 69.2143 9.76823 68.8628 10.2109 68.42C10.6589 67.9721 11.013 67.4383 11.2734 66.8185C11.5339 66.1935 11.6641 65.5294 11.6641 64.8263C11.6641 64.1232 11.5339 63.4591 11.2734 62.8341C11.013 62.2091 10.6589 61.6779 10.2109 61.2404C9.76823 60.7976 9.23698 60.4487 8.61719 60.1935C7.9974 59.9331 7.34115 59.8029 6.64844 59.8029C5.72656 59.8029 4.88281 60.0216 4.11719 60.4591C3.35156 60.8914 2.74479 61.493 2.29688 62.2638C1.85417 63.0346 1.63281 63.8888 1.63281 64.8263C1.63281 65.7638 1.85417 66.618 2.29688 67.3888C2.74479 68.1596 3.35156 68.7638 4.11719 69.2013C4.88281 69.6388 5.72656 69.8575 6.64844 69.8575ZM9.57031 63.8107H8.35156C8.26823 63.4721 8.08854 63.1987 7.8125 62.9904C7.54167 62.7768 7.19792 62.67 6.78125 62.67C6.23958 62.67 5.80729 62.8628 5.48438 63.2482C5.16667 63.6284 5.00781 64.1518 5.00781 64.8185C5.00781 65.4904 5.16667 66.0216 5.48438 66.4122C5.80729 66.7976 6.23958 66.9904 6.78125 66.9904C7.19271 66.9904 7.53646 66.8966 7.8125 66.7091C8.08854 66.5164 8.26823 66.243 8.35156 65.8888H9.57031C9.48177 66.5398 9.1901 67.0659 8.69531 67.4669C8.20573 67.8628 7.57031 68.0607 6.78906 68.0607C5.85156 68.0607 5.10677 67.7716 4.55469 67.1935C4.00781 66.6101 3.73438 65.8185 3.73438 64.8185C3.73438 63.8341 4.00781 63.0529 4.55469 62.4747C5.10677 61.8914 5.84635 61.5997 6.77344 61.5997C7.55469 61.5997 8.19271 61.8081 8.6875 62.2247C9.1875 62.6362 9.48177 63.1648 9.57031 63.8107ZM17.3438 61.8185C17.3438 60.8029 17.7083 59.9643 18.4375 59.3029C19.1719 58.6362 20.099 58.3029 21.2188 58.3029C22.2917 58.3029 23.1849 58.6049 23.8984 59.2091C24.612 59.8133 24.9688 60.5633 24.9688 61.4591C24.9688 62.0893 24.7943 62.6883 24.4453 63.256C24.0964 63.8185 23.487 64.545 22.6172 65.4357L19.7969 68.2716V68.3107H25.1484V69.7872H17.4375V68.5997L21.5078 64.4513C22.1953 63.7325 22.6562 63.1805 22.8906 62.795C23.125 62.4044 23.2422 61.9878 23.2422 61.545C23.2422 61.045 23.0417 60.6206 22.6406 60.2716C22.2396 59.9226 21.7474 59.7482 21.1641 59.7482C20.5495 59.7482 20.0339 59.9461 19.6172 60.3419C19.2057 60.7325 19 61.2221 19 61.8107V61.8341H17.3438V61.8185ZM33.9609 68.42C33.2057 69.4721 32.1562 69.9982 30.8125 69.9982C29.4688 69.9982 28.4141 69.4747 27.6484 68.4279C26.888 67.3758 26.5078 65.9461 26.5078 64.1388C26.5078 62.3471 26.8906 60.9279 27.6562 59.881C28.4219 58.8289 29.474 58.3029 30.8125 58.3029C32.151 58.3029 33.2005 58.8263 33.9609 59.8732C34.7214 60.9148 35.1016 62.3341 35.1016 64.131C35.1016 65.9383 34.7214 67.368 33.9609 68.42ZM28.9453 67.3654C29.388 68.1414 30.0104 68.5294 30.8125 68.5294C31.6146 68.5294 32.2344 68.1414 32.6719 67.3654C33.1146 66.5841 33.3359 65.5086 33.3359 64.1388C33.3359 62.7846 33.112 61.7195 32.6641 60.9435C32.2214 60.1622 31.6042 59.7716 30.8125 59.7716C30.0208 59.7716 29.401 60.1622 28.9531 60.9435C28.5052 61.7247 28.2812 62.7898 28.2812 64.1388C28.2812 65.5086 28.5026 66.5841 28.9453 67.3654ZM36.4531 61.8185C36.4531 60.8029 36.8177 59.9643 37.5469 59.3029C38.2812 58.6362 39.2083 58.3029 40.3281 58.3029C41.401 58.3029 42.2943 58.6049 43.0078 59.2091C43.7214 59.8133 44.0781 60.5633 44.0781 61.4591C44.0781 62.0893 43.9036 62.6883 43.5547 63.256C43.2057 63.8185 42.5964 64.545 41.7266 65.4357L38.9062 68.2716V68.3107H44.2578V69.7872H36.5469V68.5997L40.6172 64.4513C41.3047 63.7325 41.7656 63.1805 42 62.795C42.2344 62.4044 42.3516 61.9878 42.3516 61.545C42.3516 61.045 42.151 60.6206 41.75 60.2716C41.349 59.9226 40.8568 59.7482 40.2734 59.7482C39.6589 59.7482 39.1432 59.9461 38.7266 60.3419C38.3151 60.7325 38.1094 61.2221 38.1094 61.8107V61.8341H36.4531V61.8185ZM45.7188 61.8185C45.7188 60.8029 46.0833 59.9643 46.8125 59.3029C47.5469 58.6362 48.474 58.3029 49.5938 58.3029C50.6667 58.3029 51.5599 58.6049 52.2734 59.2091C52.987 59.8133 53.3438 60.5633 53.3438 61.4591C53.3438 62.0893 53.1693 62.6883 52.8203 63.256C52.4714 63.8185 51.862 64.545 50.9922 65.4357L48.1719 68.2716V68.3107H53.5234V69.7872H45.8125V68.5997L49.8828 64.4513C50.5703 63.7325 51.0312 63.1805 51.2656 62.795C51.5 62.4044 51.6172 61.9878 51.6172 61.545C51.6172 61.045 51.4167 60.6206 51.0156 60.2716C50.6146 59.9226 50.1224 59.7482 49.5391 59.7482C48.9245 59.7482 48.4089 59.9461 47.9922 60.3419C47.5807 60.7325 47.375 61.2221 47.375 61.8107V61.8341H45.7188V61.8185ZM56.2344 72.1075H54.8906L55.5938 67.9825H57.2969L56.2344 72.1075ZM69.0078 68.2716V69.7872H61.8516V58.5138H69.0078V60.0216H63.6016V63.3185H68.7188V64.7716H63.6016V68.2716H69.0078ZM75.5625 69.9747C73.9792 69.9747 72.7214 69.4513 71.7891 68.4044C70.862 67.3575 70.3984 65.9383 70.3984 64.1466C70.3984 62.3654 70.8646 60.9513 71.7969 59.9044C72.7292 58.8523 73.9844 58.3263 75.5625 58.3263C76.8438 58.3263 77.9245 58.6883 78.8047 59.4122C79.6849 60.131 80.1979 61.0763 80.3438 62.2482H78.6094C78.4531 61.5242 78.0964 60.9461 77.5391 60.5138C76.987 60.0763 76.3281 59.8575 75.5625 59.8575C74.5365 59.8575 73.7161 60.2482 73.1016 61.0294C72.4922 61.8055 72.1875 62.8445 72.1875 64.1466C72.1875 65.4643 72.4922 66.5112 73.1016 67.2872C73.7109 68.0581 74.5339 68.4435 75.5703 68.4435C76.3516 68.4435 77.0078 68.2534 77.5391 67.8732C78.0755 67.493 78.4323 66.9617 78.6094 66.2794H80.3516C80.138 67.4461 79.6094 68.3549 78.7656 69.006C77.9271 69.6518 76.8594 69.9747 75.5625 69.9747ZM86.8047 58.3263C88.4245 58.3263 89.7083 58.8497 90.6562 59.8966C91.6094 60.9435 92.0859 62.3628 92.0859 64.1544C92.0859 65.9461 91.612 67.3654 90.6641 68.4122C89.7161 69.4539 88.4297 69.9747 86.8047 69.9747C85.1797 69.9747 83.8932 69.4539 82.9453 68.4122C81.9974 67.3654 81.5234 65.9461 81.5234 64.1544C81.5234 62.3628 81.9974 60.9435 82.9453 59.8966C83.8932 58.8497 85.1797 58.3263 86.8047 58.3263ZM86.8047 59.8654C85.7318 59.8654 84.8802 60.2508 84.25 61.0216C83.625 61.7924 83.3125 62.8367 83.3125 64.1544C83.3125 65.4669 83.625 66.5086 84.25 67.2794C84.8802 68.0503 85.7318 68.4357 86.8047 68.4357C87.8724 68.4357 88.7188 68.0503 89.3438 67.2794C89.974 66.5086 90.2891 65.4669 90.2891 64.1544C90.2891 62.8367 89.974 61.7924 89.3438 61.0216C88.7188 60.2508 87.8724 59.8654 86.8047 59.8654ZM104.008 68.2716V69.7872H97.0078V58.5138H98.7578V68.2716H104.008ZM105.359 69.7872V61.5685H107.047V69.7872H105.359ZM106.898 60.0841C106.706 60.2716 106.474 60.3654 106.203 60.3654C105.932 60.3654 105.701 60.2716 105.508 60.0841C105.32 59.8966 105.227 59.67 105.227 59.4044C105.227 59.1336 105.32 58.9044 105.508 58.7169C105.701 58.5294 105.932 58.4357 106.203 58.4357C106.479 58.4357 106.711 58.5294 106.898 58.7169C107.091 58.9044 107.188 59.1336 107.188 59.4044C107.188 59.67 107.091 59.8966 106.898 60.0841ZM108.773 69.7872V61.5685H110.383V62.9513H110.422C110.609 62.4878 110.909 62.118 111.32 61.8419C111.732 61.5659 112.211 61.4279 112.758 61.4279C113.326 61.4279 113.807 61.5685 114.203 61.8497C114.604 62.131 114.888 62.5268 115.055 63.0372H115.094C115.307 62.5372 115.641 62.144 116.094 61.8575C116.552 61.5711 117.073 61.4279 117.656 61.4279C118.469 61.4279 119.12 61.6753 119.609 62.17C120.099 62.6648 120.344 63.3211 120.344 64.1388V69.7872H118.648V64.545C118.648 64.0138 118.51 63.6023 118.234 63.3107C117.964 63.019 117.578 62.8732 117.078 62.8732C116.578 62.8732 116.169 63.0398 115.852 63.3732C115.539 63.7065 115.383 64.1336 115.383 64.6544V69.7872H113.727V64.42C113.727 63.9461 113.586 63.5711 113.305 63.295C113.023 63.0138 112.646 62.8732 112.172 62.8732C111.672 62.8732 111.26 63.0476 110.938 63.3966C110.62 63.7404 110.461 64.1779 110.461 64.7091V69.7872H108.773ZM122.031 69.7872V61.5685H123.719V69.7872H122.031ZM123.57 60.0841C123.378 60.2716 123.146 60.3654 122.875 60.3654C122.604 60.3654 122.372 60.2716 122.18 60.0841C121.992 59.8966 121.898 59.67 121.898 59.4044C121.898 59.1336 121.992 58.9044 122.18 58.7169C122.372 58.5294 122.604 58.4357 122.875 58.4357C123.151 58.4357 123.383 58.5294 123.57 58.7169C123.763 58.9044 123.859 59.1336 123.859 59.4044C123.859 59.67 123.763 59.8966 123.57 60.0841ZM125.938 59.6232H127.633V61.5685H129.195V62.9044H127.633V67.4357C127.633 67.7898 127.714 68.0503 127.875 68.2169C128.036 68.3836 128.289 68.4669 128.633 68.4669C128.883 68.4669 129.068 68.4539 129.188 68.4279V69.7638C128.979 69.8159 128.667 69.8419 128.25 69.8419C127.422 69.8419 126.828 69.6726 126.469 69.3341C126.115 68.9904 125.938 68.42 125.938 67.6232V62.9044H124.742V61.5685H125.938V59.6232ZM135.25 63.3732C134.88 62.9773 134.404 62.7794 133.82 62.7794C133.237 62.7794 132.753 62.9799 132.367 63.381C131.982 63.7768 131.768 64.2898 131.727 64.92H135.836C135.815 64.2846 135.62 63.769 135.25 63.3732ZM135.828 67.3732H137.43C137.31 68.1284 136.924 68.7456 136.273 69.2247C135.622 69.7039 134.828 69.9435 133.891 69.9435C132.688 69.9435 131.74 69.5659 131.047 68.8107C130.359 68.0503 130.016 67.019 130.016 65.7169C130.016 64.4253 130.359 63.3862 131.047 62.5997C131.74 61.8133 132.664 61.42 133.82 61.42C134.956 61.42 135.857 61.7924 136.523 62.5372C137.19 63.2768 137.523 64.2716 137.523 65.5216V66.0997H131.719V66.2013C131.719 66.92 131.919 67.4956 132.32 67.9279C132.721 68.3601 133.258 68.5763 133.93 68.5763C134.404 68.5763 134.81 68.4669 135.148 68.2482C135.487 68.0294 135.714 67.7378 135.828 67.3732ZM141.922 69.9279C140.88 69.9279 140.044 69.5424 139.414 68.7716C138.784 68.0008 138.469 66.9695 138.469 65.6779C138.469 64.3862 138.781 63.3575 139.406 62.5919C140.036 61.8211 140.87 61.4357 141.906 61.4357C142.484 61.4357 143 61.5711 143.453 61.8419C143.906 62.1075 144.25 62.4721 144.484 62.9357H144.516V58.5138H146.211V69.7872H144.57V68.3888H144.539C144.294 68.868 143.943 69.2456 143.484 69.5216C143.031 69.7924 142.51 69.9279 141.922 69.9279ZM142.367 62.8575C141.701 62.8575 141.172 63.1128 140.781 63.6232C140.391 64.1284 140.195 64.8133 140.195 65.6779C140.195 66.5476 140.391 67.2351 140.781 67.7404C141.172 68.2456 141.701 68.4982 142.367 68.4982C143.018 68.4982 143.542 68.243 143.938 67.7325C144.333 67.2169 144.531 66.532 144.531 65.6779C144.531 64.8289 144.333 64.1466 143.938 63.631C143.542 63.1154 143.018 62.8575 142.367 62.8575Z" fill="#78888F"/>
</svg>
